<svg width="300" height="224" viewBox="0 0 300 224" fill="none" xmlns="http://www.w3.org/2000/svg">
<path d="M300 196.468H0V196.618H300V196.468Z" fill="#EBEBEB"/>
<path d="M269.941 206.125H261V206.275H269.941V206.125Z" fill="#EBEBEB"/>
<path d="M198.731 207.754H193.516V207.904H198.731V207.754Z" fill="#EBEBEB"/>
<path d="M258.466 200.554H237.951V200.704H258.466V200.554Z" fill="#EBEBEB"/>
<path d="M65.7778 203.649H39.8623V203.8H65.7778V203.649Z" fill="#EBEBEB"/>
<path d="M80.4664 203.649H71.1201V203.8H80.4664V203.649Z" fill="#EBEBEB"/>
<path d="M152.853 201.636H96.6475V201.786H152.853V201.636Z" fill="#EBEBEB"/>
<path d="M142.207 169.708H26.3468C25.4388 169.707 24.5682 169.346 23.9261 168.704C23.284 168.062 22.9228 167.191 22.9219 166.283V3.42376C22.9232 2.5159 23.2844 1.64562 23.9265 1.00379C24.5686 0.36195 25.439 0.000960805 26.3468 0H142.207C143.115 0.00128108 143.985 0.36241 144.627 1.00421C145.269 1.64601 145.63 2.51611 145.631 3.42376V166.281C145.631 167.189 145.27 168.06 144.628 168.703C143.986 169.345 143.116 169.707 142.207 169.708ZM26.3481 0.150123C25.4819 0.152678 24.652 0.497889 24.0395 1.11035C23.427 1.72282 23.0818 2.55276 23.0793 3.41892V166.281C23.0818 167.147 23.427 167.977 24.0395 168.59C24.652 169.202 25.4819 169.547 26.3481 169.55H142.209C143.075 169.547 143.905 169.202 144.517 168.59C145.13 167.977 145.475 167.147 145.477 166.281V3.42376C145.475 2.5576 145.13 1.72766 144.517 1.11519C143.905 0.502729 143.075 0.157523 142.209 0.154968L26.3481 0.150123Z" fill="#EBEBEB"/>
<path d="M271.986 169.708H156.126C155.218 169.707 154.348 169.346 153.706 168.704C153.064 168.062 152.703 167.191 152.702 166.283V3.42376C152.703 2.51601 153.064 1.64573 153.706 1.00386C154.348 0.361989 155.218 0.000961422 156.126 0H271.986C272.894 0.000960805 273.765 0.36195 274.407 1.00379C275.049 1.64562 275.41 2.5159 275.411 3.42376V166.281C275.411 167.189 275.05 168.061 274.408 168.703C273.766 169.346 272.895 169.707 271.986 169.708ZM156.126 0.150123C155.26 0.152678 154.43 0.497889 153.817 1.11035C153.205 1.72282 152.86 2.55276 152.857 3.41892V166.281C152.86 167.147 153.205 167.977 153.817 168.59C154.43 169.202 155.26 169.547 156.126 169.55H271.986C272.854 169.549 273.685 169.204 274.299 168.592C274.913 167.979 275.259 167.148 275.261 166.281V3.42376C275.259 2.55656 274.913 1.7257 274.299 1.11306C273.685 0.500428 272.854 0.155924 271.986 0.154968L156.126 0.150123Z" fill="#EBEBEB"/>
<path d="M128.684 196.466H139.857V119.744H128.684V196.466Z" fill="#E6E6E6"/>
<path d="M132.619 196.466H128.686V181.89H136.743L132.619 196.466Z" fill="#F0F0F0"/>
<path d="M246.839 196.466H258.012V119.744H246.839V196.466Z" fill="#E6E6E6"/>
<path d="M128.685 192.487L250.271 192.487V119.744L128.685 119.744V192.487Z" fill="#F0F0F0"/>
<path d="M246.343 196.466H250.277V181.89H242.215L246.343 196.466Z" fill="#F0F0F0"/>
<path d="M210.186 125.767V185.942H246.228V125.767H210.186Z" fill="#E6E6E6"/>
<path d="M224.642 127.883H231.773C234.79 127.914 237.711 126.817 239.962 124.806H216.454C218.704 126.816 221.624 127.914 224.642 127.883Z" fill="#F0F0F0"/>
<path d="M171.456 125.767V185.942H207.499V125.767H171.456Z" fill="#E6E6E6"/>
<path d="M185.548 127.883H192.679C195.696 127.914 198.616 126.816 200.867 124.806H177.359C179.61 126.817 182.53 127.914 185.548 127.883Z" fill="#F0F0F0"/>
<path d="M132.728 125.767V185.942H168.77V125.767H132.728Z" fill="#E6E6E6"/>
<path d="M146.82 127.883H153.951C156.968 127.914 159.889 126.817 162.14 124.806H138.631C140.882 126.817 143.802 127.914 146.82 127.883Z" fill="#F0F0F0"/>
<path d="M41.9862 196.466H118.222L118.222 25.0945H41.9862L41.9862 196.466Z" fill="#F0F0F0"/>
<path d="M41.9868 196.466H116.613L116.613 25.0945H41.9868L41.9868 196.466Z" fill="#F5F5F5"/>
<path d="M112.065 192.577L112.065 28.9829L46.5334 28.9829L46.5334 192.577H112.065Z" fill="#F0F0F0"/>
<path d="M105.626 59.4082C105.626 57.0621 105.164 54.7389 104.266 52.5713C103.369 50.4037 102.053 48.4342 100.394 46.7752C98.7346 45.1163 96.7651 43.8003 94.5975 42.9024C92.43 42.0046 90.1068 41.5425 87.7606 41.5425H70.8404C66.1021 41.5425 61.5579 43.4248 58.2074 46.7752C54.8569 50.1257 52.9746 54.6699 52.9746 59.4082H105.626Z" fill="#FAFAFA"/>
<path d="M105.627 182.409V143.327H52.9752V182.409H105.627Z" fill="#F5F5F5"/>
<path d="M105.627 70.428H82.4023V138.284H105.627V70.428Z" fill="#F5F5F5"/>
<path d="M76.1988 70.428H52.9746V138.284H76.1988V70.428Z" fill="#F5F5F5"/>
<path d="M61.3972 104.05H51.885C51.4939 104.05 51.1191 103.894 50.8425 103.617C50.5659 103.341 50.4101 102.966 50.4092 102.575C50.4105 102.184 50.5664 101.809 50.8428 101.533C51.1193 101.256 51.494 101.1 51.885 101.099H61.3972C61.7882 101.1 62.1628 101.256 62.4393 101.533C62.7158 101.809 62.8717 102.184 62.873 102.575C62.872 102.966 62.7162 103.341 62.4396 103.617C62.1631 103.894 61.7883 104.05 61.3972 104.05Z" fill="#E0E0E0"/>
<path d="M47.7148 192.577L47.7148 28.9829H46.5357L46.5357 192.577H47.7148Z" fill="#F0F0F0"/>
<path d="M166.443 100.935L247.29 100.935V25.0945L166.443 25.0945V100.935Z" fill="#E6E6E6"/>
<path d="M164.406 100.935L245.253 100.935V25.0945L164.406 25.0945V100.935Z" fill="#F5F5F5"/>
<path d="M159.685 105.325L247.29 105.325V100.935L159.685 100.935V105.325Z" fill="#E6E6E6"/>
<path d="M157.391 105.325L240.483 105.325V100.935L157.391 100.935V105.325Z" fill="#F5F5F5"/>
<path d="M241.594 96.991V29.04L168.063 29.04V96.991H241.594Z" fill="white"/>
<path d="M206.866 96.991V29.04H202.79V96.991H206.866Z" fill="#F5F5F5"/>
<path d="M169.604 96.991V29.04H168.062V96.991H169.604Z" fill="#E6E6E6"/>
<path d="M208.406 96.991V29.04H206.865V96.991H208.406Z" fill="#E6E6E6"/>
<path d="M177.312 102.946C175.825 87.5405 174.79 62.5415 175.594 54.1807C175.608 54.037 175.652 53.8979 175.724 53.7727C175.796 53.6475 175.893 53.5389 176.01 53.4543C176.166 53.3405 176.35 53.2727 176.542 53.2586C176.734 53.2445 176.926 53.2847 177.097 53.3746C177.267 53.4644 177.409 53.6003 177.506 53.7669C177.603 53.9334 177.651 54.1237 177.645 54.3163C177.503 58.4592 177.339 68.814 178.222 86.6773C178.661 95.5696 179.295 101.659 178.86 102.944L177.312 102.946Z" fill="#E6E6E6"/>
<path d="M171.769 67.4389C167.532 62.7379 158.889 59.3952 150.078 59.4122C146.619 59.4194 160.602 64.8807 166.422 70.9135C171.072 75.9232 174.901 81.6376 177.764 87.8446C176.641 78.6375 176.003 72.1375 171.769 67.4389Z" fill="#E6E6E6"/>
<path d="M180.161 68.8696C183.672 63.9737 191.792 60.2085 200.573 59.7824C204.02 59.6153 190.905 65.7594 186.01 72.0573C182.105 77.3211 179.137 83.2186 177.237 89.4909C176.98 80.2741 176.646 73.7668 180.161 68.8696Z" fill="#E6E6E6"/>
<path d="M171.581 50.2691C167.996 46.2885 160.674 43.4579 153.212 43.4725C150.284 43.4725 162.124 48.1045 167.048 53.2074C170.986 57.4494 174.228 62.2882 176.653 67.5441C175.706 59.7547 175.163 54.2498 171.581 50.2691Z" fill="#E6E6E6"/>
<path d="M178.686 56.1565C181.663 52.01 188.536 48.8223 195.971 48.4616C198.89 48.3199 187.784 53.5222 183.639 58.8551C180.331 63.3146 177.818 68.3113 176.209 73.6252C175.994 65.814 175.709 60.3006 178.686 56.1565Z" fill="#E6E6E6"/>
<path d="M177.91 119.744C175.676 119.744 173.526 118.89 171.902 117.356C170.277 115.822 169.301 113.725 169.173 111.495L168.4 98.1011H187.42L186.648 111.495C186.519 113.725 185.543 115.822 183.918 117.356C182.294 118.89 180.144 119.744 177.91 119.744Z" fill="#E6E6E6"/>
<path d="M188.651 101.146H167.173L166.558 95.5769H189.271L188.651 101.146Z" fill="#E6E6E6"/>
<path d="M150 223.566C214.249 223.566 266.334 220.524 266.334 216.772C266.334 213.019 214.249 209.977 150 209.977C85.7505 209.977 33.666 213.019 33.666 216.772C33.666 220.524 85.7505 223.566 150 223.566Z" fill="#F5F5F5"/>
<path d="M152.347 210.279L147.338 210.843L145.49 199.482L150.5 198.918L152.347 210.279Z" fill="#FFC3BD"/>
<path d="M174.777 211.373H169.774L168.528 199.789H173.531L174.777 211.373Z" fill="#FFC3BD"/>
<path d="M169.362 210.791H175.46C175.56 210.791 175.656 210.825 175.733 210.887C175.811 210.949 175.865 211.036 175.887 211.133L176.874 215.579C176.898 215.688 176.896 215.8 176.87 215.907C176.844 216.015 176.793 216.115 176.723 216.201C176.653 216.287 176.564 216.355 176.463 216.402C176.363 216.448 176.253 216.471 176.142 216.469C174.18 216.435 172.752 216.32 170.278 216.32C168.757 216.32 164.171 216.478 162.072 216.478C160.014 216.478 159.698 214.401 160.557 214.214C164.412 213.366 167.316 212.208 168.548 211.099C168.772 210.899 169.062 210.789 169.362 210.791Z" fill="#263238"/>
<path d="M147.255 209.985L152.684 209.37C152.783 209.358 152.882 209.381 152.966 209.434C153.051 209.486 153.114 209.566 153.147 209.66L154.63 213.967C154.667 214.071 154.68 214.182 154.668 214.292C154.656 214.402 154.618 214.508 154.559 214.601C154.5 214.695 154.42 214.774 154.326 214.831C154.231 214.889 154.125 214.925 154.015 214.935C152.053 215.124 149.211 215.33 146.751 215.61C143.873 215.936 143.393 216.706 139.999 216.628C137.941 216.579 137.425 214.491 138.288 214.327C142.22 213.563 142.981 212.969 146.105 210.516C146.432 210.236 146.83 210.052 147.255 209.985Z" fill="#263238"/>
<path d="M151.674 64.3796C149.994 65.767 148.34 66.9729 146.63 68.2077C144.919 69.4426 143.172 70.5891 141.374 71.7017C139.576 72.8143 137.731 73.8809 135.797 74.8494C133.819 75.8741 131.76 76.7333 129.64 77.4185C129.08 77.5976 128.534 77.7453 127.904 77.9027C127.289 78.0362 126.666 78.136 126.04 78.2018C124.913 78.3228 123.852 78.3773 122.795 78.4257C120.689 78.5226 118.622 78.5202 116.558 78.5056C112.429 78.456 108.336 78.2575 104.225 77.8943L104.163 74.1412C108.201 73.6218 112.256 73.1727 116.27 72.7211C118.276 72.5032 120.277 72.2586 122.232 72.0032C123.201 71.8712 124.169 71.7162 125.063 71.5504C125.447 71.4826 125.827 71.3933 126.201 71.2828C126.553 71.1618 126.985 71.0237 127.385 70.8627C129.101 70.1661 130.766 69.3514 132.369 68.4244C134.029 67.4716 135.69 66.4486 137.322 65.3615C138.954 64.2743 140.579 63.1484 142.189 61.9995C143.799 60.8505 145.408 59.6338 146.919 58.4885L151.674 64.3796Z" fill="#FFC3BD"/>
<path d="M156.564 60.1035C155.845 64.8323 145.888 72.066 145.888 72.066L138.745 63.2003C141.874 59.861 145.192 56.7036 148.682 53.7438C151.897 51.1167 157.346 54.9581 156.564 60.1035Z" fill="#407BFF"/>
<path d="M105.541 74.5369L102.701 72.5151L102.39 78.9026C102.819 78.9037 103.242 78.7997 103.622 78.5997C104.002 78.3996 104.327 78.1096 104.569 77.7549L105.541 74.5369Z" fill="#FFC3BD"/>
<path d="M100.135 70.6558L99.5537 76.9161L102.392 78.9028L102.703 72.5153L100.135 70.6558Z" fill="#FFC3BD"/>
<path opacity="0.2" d="M145.493 199.486L146.445 205.342L151.456 204.778L150.504 198.922L145.493 199.486Z" fill="black"/>
<path opacity="0.2" d="M173.534 199.79H168.529L169.173 205.761H174.178L173.534 199.79Z" fill="black"/>
<path d="M173.604 53.8954C173.977 53.9789 174.329 54.1361 174.64 54.3578C174.951 54.5795 175.214 54.8611 175.415 55.1861C175.615 55.5111 175.749 55.8729 175.807 56.2502C175.866 56.6276 175.848 57.0128 175.756 57.3833C174.67 61.8888 173.852 66.4545 173.305 71.0565C172.832 74.9306 172.549 78.6316 172.372 81.9864C171.957 89.8496 172.13 95.8436 171.895 97.8751C167.983 97.6039 153.242 96.5785 145.204 96.0168C142.491 74.7769 145.671 61.2223 147.456 55.715C147.73 54.8568 148.241 54.094 148.931 53.5153C149.622 52.9366 150.462 52.5658 151.355 52.4462C152.379 52.3118 153.604 52.1823 154.897 52.106C155.35 52.0769 155.809 52.0612 156.276 52.0515C160.071 52.0964 163.859 52.36 167.624 52.8409C168.338 52.9256 169.059 53.031 169.762 53.1435C171.165 53.3784 172.499 53.6484 173.604 53.8954Z" fill="#346AE1"/>
<path d="M167.393 39.9917C166.424 43.5922 165.24 50.2315 167.625 52.8465C161.438 57.0076 157.489 62.866 156.35 61.5936C155.753 60.9277 155.494 53.2218 156.279 52.0548C160.418 51.3671 160.523 48.3392 160.012 45.453L167.393 39.9917Z" fill="#FFC3BD"/>
<path d="M167.145 51.354C167.145 51.354 157.064 55.8153 155.728 65.7912C158.505 62.5756 164.639 59.0768 164.639 59.0768L161.933 58.2996C163.654 57.6465 165.436 57.1671 167.252 56.8686C166.952 55.4908 168.552 52.7426 168.552 52.7426L167.145 51.354Z" fill="#407BFF"/>
<path d="M158.049 51.1931C158.049 51.1931 159.393 56.8905 155.728 65.7913C155.005 62.6847 154.015 59.6466 152.767 56.7113L155.235 57.3832C155.235 57.3832 155.114 56.2343 153.115 54.7065C153.948 53.4966 154.987 52.4423 156.184 51.5914L158.049 51.1931Z" fill="#407BFF"/>
<path opacity="0.2" d="M164.384 42.2207L160.016 45.4508C160.145 46.1229 160.215 46.8051 160.225 47.4895C161.799 47.3684 164.051 45.8152 164.33 44.1989C164.468 43.5482 164.486 42.8779 164.384 42.2207Z" fill="black"/>
<path d="M154.582 29.5655C152.142 29.6708 150.796 33.8767 153.272 37.3404C155.748 40.8041 157.869 29.4239 154.582 29.5655Z" fill="#263238"/>
<path d="M166.613 33.2667C166.903 38.2232 167.324 41.1082 165.142 43.9326C161.862 48.1809 155.518 46.6579 153.754 41.8878C152.167 37.5948 151.96 30.211 156.538 27.6746C157.545 27.11 158.68 26.8123 159.835 26.8098C160.99 26.8074 162.126 27.1002 163.136 27.6606C164.145 28.221 164.995 29.0302 165.603 30.0114C166.212 30.9927 166.56 32.1133 166.613 33.2667Z" fill="#FFC3BD"/>
<path d="M167.34 37.0754C166.014 36.2985 164.857 35.2657 163.935 34.0371C163.012 32.8085 162.344 31.4087 161.968 29.9192C160.515 30.263 153.274 33.5948 151.048 29.9192C148.821 26.2436 151.623 24.0874 155.789 26.3502C153.946 23.0983 155.622 21.5075 161.411 21.3671C167.2 21.2266 166.422 24.5826 166.422 24.5826C166.422 24.5826 170.804 22.6746 172.354 26.0354C174.15 29.8974 170.837 36.4919 167.34 37.0754Z" fill="#263238"/>
<path d="M165.432 23.6951C165.485 23.6951 167.624 24.2097 170.089 21.729C169.647 23.8452 165.819 25.2545 165.819 25.2545L165.432 23.6951Z" fill="#263238"/>
<path d="M168.309 30.9457C166 30.1479 163.205 33.568 164.238 37.6976C165.27 41.8271 171.419 32.0208 168.309 30.9457Z" fill="#263238"/>
<path d="M169.615 37.389C169.404 38.6199 168.714 39.7169 167.695 40.4399C166.338 41.3866 165.115 40.3043 165.032 38.7377C164.961 37.3285 165.581 35.1372 167.164 34.8139C167.511 34.749 167.869 34.7719 168.205 34.8806C168.541 34.9892 168.845 35.1801 169.088 35.436C169.332 35.6919 169.508 36.0045 169.6 36.3456C169.692 36.6867 169.697 37.0453 169.615 37.389Z" fill="#FFC3BD"/>
<path d="M152.727 152.378C153.93 137.746 162.748 97.2406 162.748 97.2406L145.201 96.0166C145.201 96.0166 138.434 136.224 137.916 151.483C137.376 167.349 143.758 202.611 143.758 202.611L152.173 201.653C152.173 201.653 151.52 167.07 152.727 152.378Z" fill="#407BFF"/>
<path opacity="0.5" d="M152.727 152.378C153.93 137.746 162.748 97.2406 162.748 97.2406L145.201 96.0166C145.201 96.0166 138.434 136.224 137.916 151.483C137.376 167.349 143.758 202.611 143.758 202.611L152.173 201.653C152.173 201.653 151.52 167.07 152.727 152.378Z" fill="white"/>
<path opacity="0.2" d="M156.138 110.958C152.601 115.481 152.538 131.366 153.906 143.102C155.21 134.636 157.264 123.884 159.064 114.921L156.138 110.958Z" fill="black"/>
<path d="M154.67 96.6765C154.67 96.6765 156.563 139.504 158.676 154.007C160.988 169.89 166.861 204.604 166.861 204.604H176.024C176.024 204.604 174.516 171.908 173.307 156.304C171.93 138.53 171.893 97.8775 171.893 97.8775L154.67 96.6765Z" fill="#407BFF"/>
<path opacity="0.5" d="M154.67 96.6765C154.67 96.6765 156.563 139.504 158.676 154.007C160.988 169.89 166.861 204.604 166.861 204.604H176.024C176.024 204.604 174.516 171.908 173.307 156.304C171.93 138.53 171.893 97.8775 171.893 97.8775L154.67 96.6765Z" fill="white"/>
<path d="M165.76 204.798H176.548V201.576L164.488 201.366L165.76 204.798Z" fill="#407BFF"/>
<path d="M143.391 203.559L153.42 202.422L153.057 199.181L141.825 200.281L143.391 203.559Z" fill="#407BFF"/>
<path d="M159.315 35.5392C159.364 35.9399 159.194 36.2898 158.928 36.3213C158.662 36.3528 158.415 36.0537 158.367 35.653C158.32 35.2523 158.488 34.9024 158.755 34.8709C159.021 34.8394 159.268 35.1385 159.315 35.5392Z" fill="#263238"/>
<path d="M154.788 36.0826C154.837 36.4834 154.667 36.8332 154.401 36.8647C154.135 36.8962 153.888 36.5972 153.839 36.1964C153.791 35.7957 153.96 35.4458 154.227 35.4144C154.493 35.3829 154.74 35.6868 154.788 36.0826Z" fill="#263238"/>
<path d="M156.251 36.1094C155.921 37.3911 155.416 38.6214 154.75 39.7656C155.047 39.9283 155.376 40.0242 155.714 40.0466C156.052 40.069 156.391 40.0173 156.706 39.8951L156.251 36.1094Z" fill="#ED847E"/>
<path d="M160.546 33.9058C160.504 33.9185 160.459 33.9195 160.416 33.9086C160.373 33.8977 160.335 33.8754 160.304 33.8441C160.103 33.6239 159.854 33.4543 159.576 33.3491C159.297 33.2439 158.998 33.2061 158.702 33.2388C158.64 33.2492 158.577 33.2353 158.525 33.2001C158.474 33.1649 158.438 33.1111 158.425 33.0499C158.418 33.0193 158.418 32.9876 158.424 32.957C158.431 32.9263 158.443 32.8972 158.46 32.8713C158.478 32.8455 158.501 32.8234 158.527 32.8065C158.553 32.7895 158.583 32.778 158.614 32.7727C158.987 32.7243 159.367 32.7663 159.72 32.8953C160.074 33.0242 160.392 33.2363 160.646 33.5136C160.69 33.5587 160.714 33.6188 160.714 33.6813C160.714 33.7438 160.69 33.8038 160.646 33.8489C160.618 33.876 160.584 33.8956 160.546 33.9058Z" fill="#263238"/>
<path d="M158.806 41.4933C159.377 41.3732 159.911 41.1172 160.363 40.7472C160.815 40.3772 161.17 39.9039 161.401 39.3674C161.412 39.3353 161.41 39.3 161.395 39.2694C161.38 39.2387 161.354 39.2152 161.322 39.204C161.29 39.1927 161.255 39.1947 161.224 39.2095C161.193 39.2242 161.17 39.2506 161.158 39.2827C160.938 39.7762 160.605 40.211 160.185 40.5521C159.766 40.8932 159.272 41.131 158.744 41.2464C158.728 41.2501 158.713 41.257 158.699 41.2667C158.685 41.2764 158.674 41.2887 158.665 41.3028C158.656 41.317 158.65 41.3328 158.647 41.3493C158.645 41.3657 158.645 41.3826 158.649 41.3989C158.652 41.4152 158.659 41.4306 158.669 41.4442C158.679 41.4579 158.691 41.4694 158.705 41.4783C158.719 41.4872 158.735 41.4932 158.752 41.496C158.768 41.4988 158.785 41.4983 158.801 41.4946L158.806 41.4933Z" fill="#263238"/>
<path d="M152.658 34.7581C152.611 34.774 152.559 34.774 152.512 34.7581C152.453 34.7365 152.405 34.693 152.378 34.6369C152.351 34.5807 152.346 34.5161 152.365 34.4567C152.479 34.0976 152.677 33.7712 152.944 33.5052C153.21 33.2392 153.537 33.0415 153.897 32.9288C153.957 32.9151 154.021 32.9253 154.075 32.9573C154.128 32.9893 154.167 33.0407 154.184 33.1008C154.197 33.1613 154.187 33.2249 154.156 33.2783C154.124 33.3317 154.073 33.3709 154.013 33.3877C153.73 33.4819 153.474 33.6419 153.266 33.8545C153.057 34.0671 152.902 34.3262 152.813 34.6104C152.8 34.6453 152.78 34.6767 152.753 34.7024C152.726 34.728 152.694 34.747 152.658 34.7581Z" fill="#263238"/>
<path d="M167.714 211.665C167.371 211.692 167.03 211.602 166.745 211.41C166.657 211.333 166.588 211.236 166.546 211.127C166.504 211.018 166.489 210.9 166.503 210.784C166.503 210.715 166.522 210.647 166.558 210.588C166.594 210.528 166.645 210.48 166.707 210.449C167.262 210.163 168.874 211.156 169.055 211.269C169.075 211.282 169.091 211.3 169.101 211.322C169.11 211.343 169.114 211.367 169.11 211.39C169.106 211.413 169.095 211.435 169.079 211.452C169.063 211.469 169.043 211.482 169.02 211.487C168.593 211.595 168.155 211.655 167.714 211.665ZM166.971 210.63C166.918 210.628 166.865 210.638 166.817 210.659C166.792 210.673 166.772 210.693 166.759 210.718C166.746 210.742 166.74 210.77 166.742 210.798C166.731 210.878 166.74 210.959 166.768 211.034C166.796 211.109 166.842 211.175 166.903 211.228C167.462 211.483 168.097 211.515 168.679 211.318C168.157 210.98 167.575 210.746 166.965 210.63H166.971Z" fill="#407BFF"/>
<path d="M168.989 211.49C168.969 211.49 168.95 211.485 168.932 211.475C168.415 211.194 167.414 210.097 167.519 209.538C167.537 209.451 167.584 209.372 167.652 209.315C167.721 209.259 167.807 209.227 167.896 209.227C167.986 209.216 168.077 209.224 168.164 209.25C168.251 209.276 168.332 209.32 168.401 209.379C168.982 209.855 169.102 211.298 169.105 211.359C169.107 211.38 169.103 211.401 169.093 211.421C169.084 211.44 169.07 211.456 169.052 211.468C169.034 211.481 169.012 211.488 168.989 211.49ZM167.979 209.462H167.925C167.771 209.481 167.758 209.551 167.752 209.583C167.689 209.912 168.327 210.74 168.841 211.131C168.807 210.559 168.602 210.011 168.251 209.557C168.174 209.495 168.078 209.461 167.979 209.462Z" fill="#407BFF"/>
<path d="M146.848 210.725L146.829 210.733C146.046 210.984 144.644 211.338 144.045 210.919C143.956 210.858 143.884 210.777 143.834 210.681C143.784 210.586 143.758 210.48 143.759 210.372C143.754 210.307 143.766 210.242 143.794 210.184C143.822 210.125 143.864 210.074 143.917 210.037C144.48 209.641 146.595 210.419 146.835 210.51C146.856 210.519 146.873 210.534 146.886 210.552C146.899 210.57 146.907 210.592 146.908 210.614C146.909 210.636 146.904 210.659 146.894 210.678C146.883 210.698 146.868 210.714 146.848 210.726V210.725ZM144.084 210.211L144.057 210.228C144.035 210.243 144.018 210.263 144.007 210.287C143.996 210.31 143.993 210.337 143.996 210.363C143.995 210.434 144.011 210.504 144.043 210.567C144.075 210.631 144.122 210.685 144.18 210.726C144.916 210.956 145.71 210.913 146.417 210.605C145.685 210.28 144.882 210.144 144.083 210.211H144.084Z" fill="#407BFF"/>
<path d="M146.849 210.725C146.82 210.739 146.787 210.742 146.757 210.732C146.127 210.531 144.82 209.59 144.844 209.019C144.85 208.884 144.926 208.709 145.246 208.64C145.361 208.614 145.481 208.612 145.597 208.634C145.713 208.656 145.824 208.702 145.922 208.768C146.435 209.259 146.78 209.898 146.909 210.596C146.914 210.617 146.912 210.638 146.906 210.657C146.9 210.677 146.888 210.695 146.873 210.709C146.866 210.715 146.858 210.72 146.849 210.725ZM145.165 208.921C145.084 208.964 145.081 209.015 145.08 209.035C145.063 209.378 145.966 210.131 146.621 210.429C146.5 209.871 146.211 209.364 145.792 208.976C145.72 208.927 145.639 208.893 145.554 208.876C145.468 208.86 145.381 208.861 145.296 208.881C145.25 208.888 145.206 208.901 145.165 208.921Z" fill="#407BFF"/>
<path d="M177.825 61.1109C177.698 63.0649 177.468 64.8846 177.229 66.7635C176.991 68.6425 176.67 70.4839 176.318 72.3422C175.621 76.1379 174.591 79.865 173.241 83.4803L172.647 84.8811L172.497 85.231L172.459 85.3181L172.398 85.4513L172.223 85.7964C171.993 86.2156 171.716 86.6079 171.399 86.9659C170.877 87.5532 170.267 88.0556 169.59 88.455C169.042 88.7811 168.467 89.0602 167.872 89.2891C165.889 90.0044 163.816 90.4372 161.712 90.5748C157.893 90.8601 154.054 90.7168 150.267 90.1475L150.403 86.3944L153.05 86.0954C153.937 85.9901 154.82 85.8532 155.698 85.7322C157.449 85.4743 159.183 85.1862 160.836 84.8024C162.364 84.4912 163.85 83.9986 165.262 83.3351C165.643 83.1751 165.976 82.9205 166.23 82.5954C166.246 82.5094 166.055 82.8859 166.28 82.2842L166.676 81.1268C167.646 77.8088 168.387 74.4284 168.896 71.0093C169.181 69.2684 169.424 67.5117 169.659 65.7502C169.894 63.9887 170.088 62.1908 170.273 60.502L177.825 61.1109Z" fill="#FFC3BD"/>
<path d="M178.26 57.4836C180.71 61.5914 178.624 74.5019 178.624 74.5019L165.791 72.1302C165.791 72.1302 165.096 64.7452 167.539 59.0623C170.191 52.8771 175.293 52.5066 178.26 57.4836Z" fill="#407BFF"/>
<path d="M146.81 98.0058L140 66.3299C139.673 64.9773 138.915 63.7676 137.841 62.8832C136.767 61.9988 135.434 61.4876 134.044 61.4268H107.95C109.341 61.4873 110.674 61.9984 111.748 62.8828C112.823 63.7673 113.581 64.9771 113.908 66.3299L120.718 98.0058C121.045 99.3584 121.802 100.568 122.877 101.453C123.951 102.337 125.284 102.848 126.674 102.909H152.767C151.376 102.848 150.043 102.337 148.969 101.453C147.895 100.568 147.137 99.3584 146.81 98.0058Z" fill="#263238"/>
<path opacity="0.7" d="M146.81 98.0058L140 66.3299C139.673 64.9773 138.915 63.7676 137.841 62.8832C136.767 61.9988 135.434 61.4876 134.044 61.4268H107.95C109.341 61.4873 110.674 61.9984 111.748 62.8828C112.823 63.7673 113.581 64.9771 113.908 66.3299L120.718 98.0058C121.045 99.3584 121.802 100.568 122.877 101.453C123.951 102.337 125.284 102.848 126.674 102.909H152.767C151.376 102.848 150.043 102.337 148.969 101.453C147.895 100.568 147.137 99.3584 146.81 98.0058Z" fill="#407BFF"/>
<path d="M107.951 61.4268H134.043C132.707 61.4518 131.426 61.9639 130.441 62.8668C129.456 63.7697 128.835 65.0012 128.694 66.3299L121.925 139.938C121.784 141.267 121.163 142.498 120.178 143.401C119.193 144.304 117.912 144.816 116.577 144.841H100.291C99.6635 144.853 99.0409 144.731 98.4648 144.482C97.8886 144.234 97.3722 143.865 96.9502 143.401C96.5281 142.936 96.2101 142.387 96.0175 141.79C95.8248 141.193 95.7619 140.562 95.8331 139.938L102.603 66.3299C102.744 65.0014 103.365 63.77 104.35 62.8672C105.334 61.9643 106.615 61.4521 107.951 61.4268Z" fill="#407BFF"/>
<path d="M112.119 139.937C112.048 140.56 112.111 141.192 112.303 141.789C112.496 142.386 112.814 142.935 113.236 143.399C113.658 143.864 114.174 144.232 114.75 144.481C115.327 144.729 115.949 144.852 116.577 144.84H90.4843C89.8569 144.852 89.2342 144.73 88.658 144.481C88.0818 144.233 87.5653 143.864 87.1432 143.4C86.7211 142.935 86.4031 142.386 86.2105 141.789C86.018 141.192 85.9553 140.56 86.0266 139.937H112.119Z" fill="#263238"/>
<path opacity="0.7" d="M112.119 139.937C112.048 140.56 112.111 141.192 112.303 141.789C112.496 142.386 112.814 142.935 113.236 143.399C113.658 143.864 114.174 144.232 114.75 144.481C115.327 144.729 115.949 144.852 116.577 144.84H90.4843C89.8569 144.852 89.2342 144.73 88.658 144.481C88.0818 144.233 87.5653 143.864 87.1432 143.4C86.7211 142.935 86.4031 142.386 86.2105 141.789C86.018 141.192 85.9553 140.56 86.0266 139.937H112.119Z" fill="#407BFF"/>
<g opacity="0.5">
<path opacity="0.5" d="M124.174 69.6738H106.517C106.381 69.6757 106.246 69.6485 106.121 69.5941C105.996 69.5398 105.884 69.4594 105.792 69.3584C105.701 69.2574 105.632 69.1381 105.59 69.0084C105.548 68.8787 105.534 68.7415 105.549 68.606C105.58 68.3169 105.716 68.0492 105.93 67.8527C106.144 67.6562 106.423 67.5444 106.714 67.5382H124.367C124.504 67.5363 124.639 67.5635 124.764 67.6178C124.889 67.6722 125.001 67.7525 125.093 67.8535C125.184 67.9545 125.253 68.0739 125.295 68.2036C125.337 68.3333 125.351 68.4705 125.336 68.606C125.305 68.8946 125.17 69.1621 124.956 69.3585C124.742 69.5549 124.464 69.667 124.174 69.6738Z" fill="white"/>
<path opacity="0.5" d="M123.647 75.4499H105.991C105.855 75.4518 105.72 75.4246 105.595 75.3702C105.47 75.3159 105.357 75.2355 105.266 75.1345C105.174 75.0336 105.105 74.9142 105.063 74.7845C105.021 74.6548 105.007 74.5176 105.023 74.3821C105.054 74.093 105.189 73.8253 105.404 73.6288C105.618 73.4323 105.897 73.3205 106.187 73.3143H123.844C123.98 73.3124 124.115 73.3396 124.24 73.3939C124.365 73.4483 124.477 73.5287 124.569 73.6297C124.66 73.7306 124.729 73.85 124.771 73.9797C124.813 74.1094 124.827 74.2466 124.812 74.3821C124.781 74.6712 124.645 74.9392 124.431 75.1357C124.217 75.3322 123.938 75.4439 123.647 75.4499Z" fill="white"/>
<path opacity="0.5" d="M118.794 81.226H105.466C105.329 81.2279 105.194 81.2007 105.069 81.1464C104.944 81.092 104.832 81.0117 104.74 80.9107C104.649 80.8097 104.58 80.6903 104.538 80.5606C104.496 80.4309 104.482 80.2937 104.497 80.1582C104.529 79.8692 104.664 79.6014 104.878 79.4049C105.093 79.2084 105.371 79.0967 105.662 79.0904H118.99C119.126 79.0886 119.262 79.1157 119.387 79.1701C119.512 79.2244 119.624 79.3048 119.715 79.4058C119.807 79.5068 119.876 79.6261 119.918 79.7558C119.96 79.8856 119.974 80.0227 119.959 80.1582C119.927 80.4473 119.792 80.715 119.577 80.9115C119.363 81.108 119.085 81.2198 118.794 81.226Z" fill="white"/>
<path opacity="0.5" d="M109.461 87.0009H104.941C104.805 87.0028 104.67 86.9757 104.545 86.9213C104.42 86.8669 104.308 86.7866 104.216 86.6856C104.124 86.5846 104.055 86.4653 104.013 86.3355C103.971 86.2058 103.958 86.0686 103.973 85.9331C104.004 85.6442 104.139 85.3765 104.353 85.1799C104.567 84.9834 104.846 84.8716 105.136 84.8653H109.657C109.793 84.8635 109.928 84.8906 110.053 84.945C110.178 84.9994 110.29 85.0797 110.382 85.1807C110.474 85.2817 110.543 85.401 110.585 85.5307C110.627 85.6605 110.64 85.7976 110.625 85.9331C110.594 86.2222 110.458 86.4899 110.244 86.6864C110.03 86.8829 109.751 86.9947 109.461 87.0009Z" fill="white"/>
<path opacity="0.5" d="M122.071 92.777H104.41C104.274 92.7789 104.139 92.7518 104.013 92.6974C103.888 92.643 103.776 92.5627 103.685 92.4617C103.593 92.3607 103.524 92.2414 103.482 92.1117C103.44 91.9819 103.426 91.8448 103.441 91.7093C103.473 91.4202 103.608 91.1524 103.823 90.956C104.037 90.7595 104.315 90.6477 104.606 90.6414H122.262C122.399 90.6396 122.534 90.6667 122.659 90.7211C122.784 90.7755 122.896 90.8558 122.988 90.9568C123.079 91.0578 123.148 91.1771 123.19 91.3069C123.232 91.4366 123.246 91.5738 123.231 91.7093C123.2 91.9975 123.065 92.2646 122.852 92.461C122.638 92.6573 122.361 92.7697 122.071 92.777Z" fill="white"/>
<path opacity="0.5" d="M114.594 98.5529H103.891C103.755 98.5548 103.62 98.5277 103.495 98.4733C103.37 98.4189 103.258 98.3386 103.166 98.2376C103.075 98.1366 103.006 98.0173 102.964 97.8875C102.922 97.7578 102.908 97.6206 102.923 97.4851C102.954 97.1962 103.089 96.9285 103.303 96.7319C103.517 96.5354 103.796 96.4236 104.086 96.4173H114.789C114.925 96.4155 115.06 96.4426 115.185 96.497C115.31 96.5514 115.422 96.6317 115.514 96.7327C115.605 96.8337 115.675 96.953 115.716 97.0827C115.758 97.2125 115.772 97.3496 115.757 97.4851C115.726 97.774 115.59 98.0416 115.376 98.238C115.162 98.4345 114.884 98.5464 114.594 98.5529Z" fill="white"/>
<path opacity="0.5" d="M121.021 104.328H103.365C103.229 104.33 103.094 104.303 102.969 104.248C102.844 104.194 102.731 104.113 102.64 104.012C102.548 103.911 102.479 103.792 102.437 103.662C102.395 103.533 102.381 103.396 102.397 103.26C102.428 102.971 102.563 102.703 102.778 102.507C102.992 102.31 103.271 102.198 103.561 102.192H121.219C121.355 102.19 121.49 102.218 121.615 102.272C121.74 102.326 121.852 102.407 121.944 102.508C122.036 102.609 122.105 102.728 122.147 102.858C122.189 102.987 122.202 103.125 122.187 103.26C122.156 103.549 122.02 103.817 121.806 104.014C121.591 104.21 121.312 104.322 121.021 104.328Z" fill="white"/>
<path opacity="0.5" d="M116.169 110.104H102.841C102.704 110.106 102.569 110.079 102.444 110.024C102.319 109.97 102.207 109.89 102.115 109.789C102.024 109.688 101.955 109.568 101.913 109.439C101.871 109.309 101.857 109.172 101.872 109.036C101.904 108.747 102.039 108.479 102.253 108.283C102.468 108.086 102.746 107.975 103.037 107.968H116.365C116.501 107.966 116.637 107.994 116.762 108.048C116.887 108.102 116.999 108.183 117.09 108.284C117.182 108.385 117.251 108.504 117.293 108.634C117.335 108.763 117.349 108.901 117.334 109.036C117.302 109.325 117.167 109.593 116.952 109.789C116.738 109.986 116.46 110.098 116.169 110.104Z" fill="white"/>
<path opacity="0.5" d="M106.834 115.879H102.311C102.175 115.881 102.04 115.854 101.915 115.799C101.79 115.745 101.678 115.664 101.586 115.563C101.495 115.463 101.426 115.343 101.384 115.213C101.342 115.084 101.328 114.947 101.343 114.811C101.374 114.522 101.51 114.254 101.724 114.058C101.938 113.861 102.217 113.749 102.508 113.743H107.033C107.169 113.741 107.304 113.769 107.43 113.823C107.555 113.877 107.667 113.958 107.758 114.059C107.85 114.16 107.919 114.279 107.961 114.409C108.003 114.538 108.017 114.676 108.001 114.811C107.97 115.101 107.834 115.369 107.619 115.565C107.405 115.762 107.126 115.873 106.834 115.879Z" fill="white"/>
<path opacity="0.5" d="M119.445 121.656H101.789C101.653 121.658 101.517 121.631 101.392 121.577C101.267 121.522 101.155 121.442 101.064 121.341C100.972 121.24 100.903 121.121 100.861 120.991C100.819 120.861 100.805 120.724 100.82 120.588C100.852 120.299 100.987 120.032 101.202 119.835C101.416 119.639 101.694 119.527 101.985 119.521H119.641C119.778 119.519 119.913 119.546 120.038 119.6C120.163 119.655 120.275 119.735 120.367 119.836C120.458 119.937 120.527 120.056 120.569 120.186C120.611 120.316 120.625 120.453 120.61 120.588C120.579 120.877 120.443 121.145 120.229 121.342C120.014 121.538 119.736 121.65 119.445 121.656Z" fill="white"/>
<path opacity="0.5" d="M111.967 127.431H101.265C101.128 127.433 100.993 127.406 100.868 127.351C100.743 127.297 100.631 127.217 100.539 127.116C100.448 127.015 100.379 126.895 100.337 126.766C100.295 126.636 100.281 126.499 100.296 126.363C100.327 126.074 100.463 125.806 100.677 125.61C100.891 125.413 101.17 125.301 101.461 125.296H112.162C112.298 125.294 112.433 125.321 112.558 125.375C112.683 125.43 112.795 125.51 112.887 125.611C112.979 125.712 113.048 125.831 113.09 125.961C113.131 126.091 113.145 126.228 113.13 126.363C113.099 126.652 112.964 126.92 112.749 127.116C112.535 127.313 112.257 127.425 111.967 127.431Z" fill="white"/>
<path opacity="0.5" d="M118.394 133.207H100.738C100.602 133.209 100.467 133.182 100.342 133.128C100.217 133.073 100.105 132.993 100.013 132.892C99.9213 132.791 99.8523 132.672 99.8103 132.542C99.7683 132.412 99.7545 132.275 99.7696 132.139C99.801 131.85 99.9365 131.583 100.151 131.386C100.365 131.19 100.644 131.078 100.934 131.072H118.588C118.724 131.07 118.86 131.097 118.985 131.151C119.11 131.206 119.222 131.286 119.313 131.387C119.405 131.488 119.474 131.607 119.516 131.737C119.558 131.867 119.572 132.004 119.557 132.139C119.525 132.428 119.39 132.696 119.176 132.892C118.963 133.088 118.685 133.2 118.394 133.207Z" fill="white"/>
</g>
<path d="M151.942 86.8034L148.109 83.4729L146.312 89.6037C146.312 89.6037 150.206 91.7151 151.555 89.7768L151.942 86.8034Z" fill="#FFC3BD"/>
<path d="M143.933 83.2332L142.686 88.3712L146.308 89.6061L148.104 83.4741L143.933 83.2332Z" fill="#FFC3BD"/>
</svg>
