<svg width="50" height="50" viewBox="0 0 50 50" fill="none" xmlns="http://www.w3.org/2000/svg">
<circle cx="25" cy="25" r="25" fill="#017EFA" fill-opacity="0.2"/>
<g clip-path="url(#clip0_302_37)">
<path d="M36.4748 29.0557L39.6904 30.6645C40.1029 30.8707 40.1029 31.4595 39.6904 31.6657L25.5004 38.7626C25.3449 38.8402 25.1736 38.8806 24.9998 38.8806C24.826 38.8806 24.6547 38.8402 24.4992 38.7626L10.3092 31.6657C10.2165 31.619 10.1386 31.5474 10.0841 31.4591C10.0297 31.3707 10.0009 31.2689 10.0009 31.1651C10.0009 31.0613 10.0297 30.9595 10.0841 30.8711C10.1386 30.7827 10.2165 30.7112 10.3092 30.6645L13.5267 29.0557L23.4961 34.0413C24.4429 34.5138 25.5586 34.5138 26.5036 34.0413L36.4729 29.0538L36.4748 29.0557ZM24.4992 10.1182C24.6547 10.0406 24.826 10.0002 24.9998 10.0002C25.1736 10.0002 25.3449 10.0406 25.5004 10.1182L39.6904 17.2132C39.7831 17.2602 39.8608 17.332 39.9152 17.4205C39.9695 17.509 39.9983 17.6109 39.9983 17.7148C39.9983 17.8187 39.9695 17.9205 39.9152 18.009C39.8608 18.0976 39.7831 18.1693 39.6904 18.2163L25.5004 25.3095C25.3449 25.387 25.1736 25.4274 24.9998 25.4274C24.826 25.4274 24.6547 25.387 24.4992 25.3095L10.3092 18.2163C10.216 18.1698 10.1376 18.0982 10.0828 18.0096C10.028 17.921 9.99902 17.8189 9.99902 17.7148C9.99902 17.6106 10.028 17.5085 10.0828 17.4199C10.1376 17.3313 10.216 17.2597 10.3092 17.2132L24.4992 10.1182Z" fill="#017EFA"/>
<path d="M36.4749 22.3301L39.6905 23.9388C40.103 24.1451 40.103 24.7338 39.6905 24.9401L25.5005 32.0351C25.345 32.1127 25.1736 32.153 24.9999 32.153C24.8261 32.153 24.6547 32.1127 24.4993 32.0351L10.3093 24.9401C10.2166 24.8934 10.1387 24.8218 10.0842 24.7334C10.0298 24.645 10.001 24.5433 10.001 24.4395C10.001 24.3356 10.0298 24.2339 10.0842 24.1455C10.1387 24.0571 10.2166 23.9856 10.3093 23.9388L13.5268 22.3301L23.4961 27.3157C24.443 27.7882 25.5586 27.7882 26.5036 27.3157L36.473 22.3301H36.4749Z" fill="#017EFA"/>
</g>
<defs>
<clipPath id="clip0_302_37">
<rect width="30" height="30" fill="white" transform="translate(10 10)"/>
</clipPath>
</defs>
</svg>
