<svg width="50" height="50" viewBox="0 0 50 50" fill="none" xmlns="http://www.w3.org/2000/svg">
<circle cx="25" cy="25" r="25" fill="#F68407" fill-opacity="0.2"/>
<path d="M15 15C14.337 15 13.7011 15.2634 13.2322 15.7322C12.7634 16.2011 12.5 16.837 12.5 17.5V26.25C12.5 26.913 12.7634 27.5489 13.2322 28.0178C13.7011 28.4866 14.337 28.75 15 28.75H28.75C29.413 28.75 30.0489 28.4866 30.5178 28.0178C30.9866 27.5489 31.25 26.913 31.25 26.25V17.5C31.25 16.837 30.9866 16.2011 30.5178 15.7322C30.0489 15.2634 29.413 15 28.75 15H15ZM21.875 17.625C21.991 17.625 22.1047 17.6573 22.2033 17.7182C22.302 17.7791 22.3818 17.8663 22.4337 17.97L23.5337 20.1713L25.7025 20.4425C25.8233 20.4577 25.937 20.5078 26.0297 20.5867C26.1224 20.6657 26.1901 20.77 26.2243 20.8868C26.2586 21.0036 26.258 21.1279 26.2226 21.2444C26.1871 21.3609 26.1185 21.4645 26.025 21.5425L24.4425 22.8612L24.985 25.3025C25.0116 25.4227 25.002 25.548 24.9576 25.6628C24.9132 25.7776 24.8359 25.8768 24.7354 25.9478C24.6348 26.0188 24.5156 26.0586 24.3925 26.0621C24.2695 26.0656 24.1482 26.0327 24.0437 25.9675L21.875 24.6125L19.7062 25.9675C19.6018 26.0327 19.4805 26.0656 19.3575 26.0621C19.2344 26.0586 19.1152 26.0188 19.0146 25.9478C18.9141 25.8768 18.8368 25.7776 18.7924 25.6628C18.748 25.548 18.7384 25.4227 18.765 25.3025L19.3075 22.8612L17.725 21.5425C17.6315 21.4645 17.5629 21.3609 17.5274 21.2444C17.492 21.1279 17.4914 21.0036 17.5257 20.8868C17.5599 20.77 17.6276 20.6657 17.7203 20.5867C17.813 20.5078 17.9267 20.4577 18.0475 20.4425L20.215 20.1713L21.315 17.9712C21.3669 17.8671 21.4468 17.7796 21.5457 17.7184C21.6446 17.6572 21.7587 17.6249 21.875 17.625ZM18.125 31.875C17.5707 31.8751 17.032 31.691 16.5937 31.3516C16.1554 31.0122 15.8423 30.5367 15.7038 30H29.375C30.2038 30 30.9987 29.6708 31.5847 29.0847C32.1708 28.4987 32.5 27.7038 32.5 26.875V18.2038C33.0367 18.3423 33.5122 18.6554 33.8516 19.0937C34.191 19.532 34.3751 20.0707 34.375 20.625V26.875C34.375 28.2011 33.8482 29.4729 32.9105 30.4105C31.9729 31.3482 30.7011 31.875 29.375 31.875H18.125ZM21.25 35C20.6957 35.0001 20.157 34.816 19.7187 34.4766C19.2804 34.1372 18.9673 33.6617 18.8288 33.125H30.3125C31.7215 33.125 33.0727 32.5653 34.069 31.569C35.0653 30.5727 35.625 29.2215 35.625 27.8125V21.3287C36.1617 21.4673 36.6372 21.7804 36.9766 22.2187C37.316 22.657 37.5001 23.1957 37.5 23.75V27.8125C37.5 29.7187 36.7427 31.5469 35.3948 32.8948C34.0469 34.2427 32.2187 35 30.3125 35H21.25Z" fill="#F68407"/>
</svg>
