<svg width="50" height="50" viewBox="0 0 50 50" fill="none" xmlns="http://www.w3.org/2000/svg">
<circle cx="25" cy="25" r="25" fill="#0ED7B5" fill-opacity="0.2"/>
<path d="M35 15H15C13.625 15 12.5125 16.125 12.5125 17.5L12.5 32.5C12.5 33.875 13.625 35 15 35H35C36.375 35 37.5 33.875 37.5 32.5V17.5C37.5 16.125 36.375 15 35 15ZM15 21.25H28.125V25.625H15V21.25ZM15 28.125H28.125V32.5H16.25C15.5625 32.5 15 31.9375 15 31.25V28.125ZM33.75 32.5H30.625V21.25H35V31.25C35 31.9375 34.4375 32.5 33.75 32.5Z" fill="#00AC8F"/>
</svg>
