<svg width="544" height="507" viewBox="0 0 544 507" fill="none" xmlns="http://www.w3.org/2000/svg">
<path opacity="0.1" d="M272 506.162C121.779 506.162 0 494.869 0 480.938C0 467.007 121.779 455.714 272 455.714C422.221 455.714 544 467.007 544 480.938C544 494.869 422.221 506.162 272 506.162Z" fill="white"/>
<path d="M115.369 225.703L121.479 226.639L114.408 272.806L108.298 271.87L115.369 225.703Z" fill="#FAB623"/>
<path d="M115.373 225.738L121.417 226.7L120.043 222.03L119.357 219.557L117.983 221.618L115.373 225.738Z" fill="#FF8C64"/>
<path d="M108.782 268.585L114.893 269.521L114.373 272.916L108.263 271.98L108.782 268.585Z" fill="#35252F"/>
<path d="M108.231 274.64L113.588 275.464C113.863 275.464 114 275.326 114 275.052L114.412 272.716L108.231 271.755L107.819 274.09C107.819 274.365 107.956 274.64 108.231 274.64Z" fill="#EF452F"/>
<path d="M117.984 221.618L120.045 222.03L119.358 219.557L117.984 221.618Z" fill="#35252F"/>
<path d="M114.876 269.524L108.766 268.588L109.14 266.144L115.251 267.08L114.876 269.524Z" fill="#F68407"/>
<path d="M119.631 228.759L114.411 262.963C114.411 263.238 114.137 263.375 113.862 263.375C113.587 263.375 113.45 263.1 113.45 262.826L118.67 228.622C118.67 228.347 118.944 228.21 119.219 228.21C119.494 228.21 119.631 228.485 119.631 228.759Z" fill="#F68407"/>
<path d="M117.16 228.348L111.94 262.551C111.94 262.826 111.665 262.963 111.39 262.963C111.116 262.963 110.978 262.689 110.978 262.414L116.198 228.21C116.198 227.936 116.473 227.798 116.747 227.798C117.022 227.798 117.16 228.073 117.16 228.348Z" fill="#F68407"/>
<path d="M104.32 225.865L110.502 225.885L110.35 272.588L104.168 272.568L104.32 225.865Z" fill="#4F9D5C"/>
<path d="M104.247 225.874L110.428 226.012L108.368 221.479L107.406 219.281L106.308 221.479L104.247 225.874Z" fill="#FF8C64"/>
<path d="M104.113 269.27L110.294 269.291L110.283 272.725L104.101 272.704L104.113 269.27Z" fill="#35252F"/>
<path d="M104.521 275.325H109.878C110.153 275.325 110.29 275.188 110.29 274.913V272.578H104.109V274.913C104.109 275.188 104.246 275.325 104.521 275.325Z" fill="#EF452F"/>
<path d="M106.306 221.479H108.367L107.405 219.281L106.306 221.479Z" fill="#35252F"/>
<path d="M110.296 269.294L104.115 269.273L104.123 266.801L110.304 266.821L110.296 269.294Z" fill="#3C7341"/>
<path d="M108.918 228.208L108.781 262.824C108.781 263.099 108.506 263.236 108.369 263.236C108.094 263.236 107.957 262.961 107.957 262.824L108.094 228.208C108.094 227.934 108.369 227.796 108.506 227.796C108.644 227.796 108.918 227.934 108.918 228.208Z" fill="#3C7341"/>
<path d="M106.445 228.209L106.307 262.825C106.307 263.1 106.032 263.237 105.895 263.237C105.62 263.237 105.483 262.962 105.483 262.825L105.62 228.209C105.62 227.935 105.895 227.797 106.033 227.797C106.307 227.797 106.445 227.935 106.445 228.209Z" fill="#3C7341"/>
<path d="M93.5545 226.576L99.6747 225.706L106.246 271.947L100.126 272.817L93.5545 226.576Z" fill="#1B6BFE"/>
<path d="M93.532 226.562L99.7134 225.738L97.1035 221.617L95.7298 219.556L94.9057 221.891L93.532 226.562Z" fill="#FF8C64"/>
<path d="M99.6269 269.496L105.747 268.626L106.23 272.027L100.11 272.896L99.6269 269.496Z" fill="#35252F"/>
<path d="M100.95 275.464L106.307 274.639C106.582 274.639 106.719 274.365 106.719 274.227L106.444 271.892L100.263 272.716L100.538 275.051C100.538 275.326 100.675 275.464 100.95 275.464Z" fill="#EF452F"/>
<path d="M94.9056 221.891L97.1034 221.617L95.7298 219.556L94.9056 221.891Z" fill="#35252F"/>
<path d="M105.789 268.528L99.6683 269.398L99.3204 266.95L105.441 266.08L105.789 268.528Z" fill="#1B48CA"/>
<path d="M98.478 228.209L103.286 262.413C103.286 262.688 103.148 262.962 102.874 262.962C102.599 262.962 102.324 262.825 102.324 262.55L97.5165 228.347C97.5165 228.072 97.6538 227.797 97.9286 227.797C98.2033 227.797 98.478 227.935 98.478 228.209Z" fill="#1B48CA"/>
<path d="M96.1415 228.621L100.949 262.825C100.949 263.1 100.812 263.374 100.537 263.374C100.262 263.374 99.9877 263.237 99.9877 262.962L95.1799 228.759C95.1799 228.484 95.3173 228.209 95.592 228.209C95.8668 228.072 96.0041 228.347 96.1415 228.621Z" fill="#1B48CA"/>
<path d="M91.4707 244.417L91.8828 246.89L92.1575 249.225L92.5696 252.659L92.8444 254.857L93.3938 258.428L93.6685 260.626L94.0806 264.06L94.3554 266.258L94.7674 269.829L95.0422 272.027L95.5916 275.599L95.8663 277.659L96.1411 279.582H120.454L120.729 277.659L121.004 275.599L121.416 272.027L121.691 269.829L122.103 266.258L122.378 264.06L122.927 260.626L123.202 258.428L123.614 254.857L123.889 252.659L124.301 249.225L124.575 246.89L124.987 244.417H91.4707Z" fill="#EF452F"/>
<path d="M91.8835 246.89L92.1582 249.225H124.301L124.576 246.89H91.8835Z" fill="#AD2F24"/>
<path d="M92.5695 252.66L92.8442 254.858H123.614L123.888 252.66H92.5695Z" fill="#AD2F24"/>
<path d="M93.3945 258.428L93.6692 260.626H122.928L123.202 258.428H93.3945Z" fill="#AD2F24"/>
<path d="M94.082 264.061L94.3567 266.258H122.104L122.379 264.061H94.082Z" fill="#AD2F24"/>
<path d="M94.7685 269.831L95.0432 272.028H121.417L121.692 269.831H94.7685Z" fill="#AD2F24"/>
<path d="M95.5934 275.598L95.8681 277.658H120.731L121.006 275.598H95.5934Z" fill="#AD2F24"/>
<path d="M364.938 83.3788C343.317 83.3788 325.789 65.8513 325.789 44.2302C325.789 22.609 343.317 5.08154 364.938 5.08154C386.559 5.08154 404.086 22.609 404.086 44.2302C404.086 65.8513 386.559 83.3788 364.938 83.3788Z" fill="#FFCDB3"/>
<path d="M364.938 78.2972C343.317 78.2972 325.789 60.7698 325.789 39.1486C325.789 17.5274 343.317 0 364.938 0C386.559 0 404.086 17.5274 404.086 39.1486C404.086 60.7698 386.559 78.2972 364.938 78.2972Z" fill="#EF452F"/>
<path d="M364.939 71.0126C347.357 71.0126 333.071 56.7268 333.071 39.1442C333.071 21.5617 347.357 7.27588 364.939 7.27588C382.522 7.27588 396.808 21.5617 396.808 39.1442C396.808 56.7268 382.522 71.0126 364.939 71.0126Z" fill="white"/>
<path d="M396.808 39.1447C396.808 39.9689 396.808 40.7931 396.67 41.6173C395.434 25.271 381.56 12.2215 364.939 12.2215C348.181 12.2215 334.445 25.1336 333.208 41.6173C333.208 40.7931 333.071 39.9689 333.071 39.1447C333.071 21.5622 347.357 7.27637 364.939 7.27637C382.522 7.27637 396.808 21.5622 396.808 39.1447Z" fill="#FFDECB"/>
<path d="M364.938 42.4433C364.664 42.4433 364.389 42.306 364.251 42.1686L348.592 21.152C348.317 20.7399 348.455 20.3278 348.729 20.0531C349.141 19.7783 349.554 19.9157 349.828 20.1904L365.076 40.795L382.521 33.1026C382.933 32.9652 383.345 33.1026 383.62 33.5147C383.757 33.9268 383.62 34.3389 383.208 34.6136L365.35 42.4433C365.213 42.4433 365.076 42.4433 364.938 42.4433Z" fill="#35252F"/>
<path d="M130.187 253.59L162.891 364.108C164.394 368.995 168.905 372.378 173.918 372.378L306.739 372.754C313.756 372.754 319.395 366.864 319.019 359.847C318.643 353.332 313.255 348.194 306.739 348.194H255.991L215.268 234.92H144.221C134.447 234.92 127.43 244.318 130.187 253.59Z" fill="#FFD66B"/>
<path d="M212.386 357.842C229.063 357.842 242.584 357.617 242.584 357.341C242.584 357.064 229.063 356.839 212.386 356.839C195.708 356.839 182.187 357.064 182.187 357.341C182.187 357.617 195.708 357.842 212.386 357.842Z" fill="#263238"/>
<path d="M139.96 238.428C140.211 238.302 149.233 264.741 160.134 297.571C171.035 330.275 179.681 356.839 179.431 356.965C179.18 357.09 170.158 330.651 159.257 297.822C148.355 265.117 139.71 238.428 139.96 238.428Z" fill="#263238"/>
<path d="M237.07 470.616L228.925 470.366V372.378H237.07V470.616Z" fill="#FFD66B"/>
<path d="M195.344 470.115H270.652L236.569 458.336H228.424L195.344 470.115Z" fill="#FFD66B"/>
<path d="M176.297 209.482L188.702 271.758L186.446 318.496L270.274 304.587L267.016 263.738L266.891 229.906L287.441 269.753L303.48 238.803L274.159 185.8C268.77 180.286 262.505 176.151 254.987 173.395C251.353 172.016 247.469 171.264 242.958 171.139C233.31 174.146 223.661 174.146 213.888 171.139C212.76 171.264 211.131 171.39 209.001 171.64C208.875 171.64 208.75 171.64 208.625 171.64C190.832 173.771 177.299 188.556 176.297 206.475V209.482Z" fill="#605BFF"/>
<path d="M209.126 171.64C209.126 171.64 174.667 171.89 170.407 208.228L169.78 234.918L199.477 234.667L209.126 171.64Z" fill="#605BFF"/>
<path d="M291.451 218.378C291.451 218.629 264.385 218.879 230.929 218.879C197.473 218.879 170.407 218.629 170.407 218.378C170.407 218.128 197.473 217.877 230.929 217.877C264.385 217.877 291.451 218.128 291.451 218.378Z" fill="#FAFAFA"/>
<path d="M291.451 224.141C291.451 224.392 264.385 224.643 230.929 224.643C197.473 224.643 170.408 224.392 170.408 224.141C170.408 223.891 197.473 223.64 230.929 223.64C264.385 223.64 291.451 223.891 291.451 224.141Z" fill="#FAFAFA"/>
<path d="M289.446 213.617C289.446 213.868 262.756 214.119 229.927 214.119C197.097 214.119 170.408 213.868 170.408 213.617C170.408 213.367 197.097 213.116 229.927 213.116C262.882 213.116 289.446 213.367 289.446 213.617Z" fill="#FAFAFA"/>
<path d="M266.515 269.754C266.264 269.754 266.389 254.968 266.765 236.799C267.141 218.63 267.643 203.844 268.018 203.844C268.269 203.844 268.144 218.63 267.768 236.799C267.267 254.968 266.765 269.754 266.515 269.754Z" fill="#263238"/>
<path d="M254.737 245.821C254.737 245.821 271.026 246.949 273.908 251.335C276.79 255.595 281.301 267.875 279.672 268C277.918 268.125 276.79 267.123 276.79 267.123L272.279 259.229C272.279 259.229 273.031 266.872 270.274 266.998C267.643 267.123 254.361 269.754 254.361 269.754L254.737 245.821Z" fill="#FFBE9D"/>
<path d="M169.906 227.777V269.754C170.407 279.527 179.68 286.544 189.203 284.539L254.862 271.007L254.736 244.066L198.099 254.968L197.347 226.524L169.906 227.777Z" fill="#605BFF"/>
<path d="M207.372 281.156C207.372 281.156 207.623 281.031 208.249 280.906C208.876 280.78 209.753 280.53 210.755 280.279C213.011 279.778 216.269 279.151 220.404 278.274C228.799 276.52 240.577 274.139 254.611 271.257L254.236 271.633C254.236 263.238 254.236 253.84 254.236 243.941L254.737 244.442C250.978 245.194 247.093 245.946 243.209 246.698C226.669 249.83 211.131 252.838 198.1 255.344L197.598 255.469V254.968C197.974 242.437 198.35 232.037 198.601 224.644C198.726 221.011 198.851 218.254 198.977 216.249C198.977 215.372 199.102 214.62 199.102 213.994C199.102 213.492 199.227 213.242 199.227 213.242C199.227 213.242 199.227 213.492 199.227 213.994C199.227 214.62 199.227 215.247 199.227 216.249C199.227 218.254 199.102 221.136 199.102 224.77C198.977 232.163 198.726 242.563 198.35 255.093L197.849 254.717C210.881 252.211 226.418 249.204 242.958 245.946C246.968 245.194 250.852 244.442 254.486 243.69L254.987 243.565V244.066C254.987 253.965 254.987 263.238 254.987 271.758V272.134L254.611 272.26C240.577 275.016 228.799 277.272 220.404 278.901C216.269 279.653 213.011 280.279 210.755 280.655C209.628 280.78 208.876 281.031 208.124 281.156C207.623 281.156 207.372 281.156 207.372 281.156Z" fill="#263238"/>
<path d="M245.088 171.64C245.088 171.64 245.214 171.891 245.339 172.267C245.464 172.643 245.715 173.269 245.84 174.146C246.216 175.775 246.341 178.281 245.59 181.163C244.838 184.045 242.833 187.303 239.951 189.935C236.944 192.691 232.683 194.446 228.047 194.446C223.411 194.446 219.025 192.566 216.269 189.684C213.512 186.802 212.259 183.168 211.883 180.161C211.507 177.154 212.133 174.648 212.76 173.144C213.011 172.392 213.387 171.766 213.637 171.39C213.888 171.014 214.013 170.763 214.013 170.889C214.138 170.889 213.637 171.766 213.136 173.269C212.635 174.773 212.259 177.154 212.635 180.036C213.011 182.918 214.264 186.301 217.02 189.058C219.652 191.814 223.787 193.568 228.172 193.568C232.558 193.568 236.693 191.94 239.575 189.308C242.457 186.802 244.337 183.795 245.214 180.913C246.091 178.156 245.965 175.65 245.84 174.146C245.214 172.518 244.963 171.64 245.088 171.64Z" fill="#263238"/>
<path d="M248.222 273.137C248.096 273.137 248.096 271.508 248.222 269.002C248.347 266.496 248.472 262.987 248.472 259.103C248.472 255.218 248.472 251.71 248.347 249.204C248.222 246.698 248.222 245.069 248.347 245.069C248.472 245.069 248.723 246.572 248.974 249.204C249.224 251.71 249.35 255.344 249.35 259.228C249.35 263.113 249.099 266.621 248.848 269.252C248.598 271.633 248.347 273.262 248.222 273.137Z" fill="#FAFAFA"/>
<path d="M244.837 273.89C244.712 273.89 244.712 272.261 244.712 269.755C244.712 266.873 244.837 263.49 244.837 259.856C244.837 256.222 244.837 252.839 244.837 249.957C244.837 247.451 244.837 245.822 244.963 245.822C245.088 245.822 245.339 247.325 245.464 249.957C245.589 252.463 245.714 255.971 245.714 259.856C245.714 263.74 245.589 267.249 245.339 269.755C245.213 272.386 244.963 273.89 244.837 273.89Z" fill="#FAFAFA"/>
<path d="M310.623 440.667L323.028 474.875L340.696 499.059C341.949 500.813 341.448 503.319 339.694 504.447C338.691 505.073 337.438 505.199 336.311 504.698C329.168 501.69 303.105 490.789 302.353 488.283C301.476 485.276 284.686 448.562 284.686 448.562L310.623 440.667Z" fill="#EF37FF"/>
<g opacity="0.6">
<g opacity="0.6">
<path d="M339.569 504.447L301.351 486.028L301.852 487.406C302.353 488.659 303.231 489.662 304.358 490.288C307.491 491.917 316.262 496.428 335.935 504.698C337.188 505.199 338.566 505.074 339.569 504.447Z" fill="#93079F"/>
</g>
</g>
<g opacity="0.6">
<g opacity="0.6">
<g opacity="0.6">
<path opacity="0.6" d="M303.982 472.37C305.11 472.62 305.862 473.748 305.611 474.876C305.36 476.003 304.233 476.755 303.105 476.505C301.977 476.254 301.1 474.876 301.351 473.873C301.727 472.871 303.105 471.994 304.107 472.495" fill="white"/>
</g>
</g>
</g>
<path d="M326.036 492.669C326.286 492.669 326.286 490.664 328.04 488.91C329.669 487.156 331.674 486.905 331.674 486.654C331.674 486.529 331.173 486.404 330.296 486.654C329.419 486.905 328.416 487.406 327.414 488.409C326.537 489.411 326.036 490.539 325.91 491.416C325.785 492.168 325.91 492.669 326.036 492.669Z" fill="#263238"/>
<path d="M330.295 496.304C330.546 496.429 331.172 494.8 332.676 493.672C334.179 492.419 335.808 492.169 335.808 491.918C335.808 491.667 333.929 491.667 332.175 493.046C330.42 494.299 330.044 496.178 330.295 496.304Z" fill="#263238"/>
<path d="M319.269 488.533C319.52 488.658 320.522 486.278 322.778 484.273C325.033 482.143 327.414 481.391 327.289 481.14C327.289 480.89 324.532 481.391 322.151 483.646C319.77 485.902 319.144 488.533 319.269 488.533Z" fill="#263238"/>
<path d="M314.633 478.509C314.758 478.635 316.387 477.131 318.768 476.129C321.149 475.001 323.279 474.875 323.279 474.75C323.279 474.5 321.024 474.374 318.392 475.502C315.886 476.504 314.508 478.384 314.633 478.509Z" fill="#263238"/>
<path d="M310.748 468.611C310.874 468.736 312.377 466.857 315.009 465.98C317.64 464.977 319.896 465.604 319.896 465.353C319.896 465.228 319.394 464.977 318.392 464.852C317.39 464.727 316.011 464.727 314.633 465.228C313.254 465.729 312.127 466.481 311.5 467.233C310.874 467.984 310.748 468.486 310.748 468.611Z" fill="#263238"/>
<path d="M314.257 464.1C314.257 464.1 314.257 463.599 313.756 462.847C313.38 462.095 312.628 460.967 311.375 459.84C310.749 459.339 310.122 458.712 308.994 458.587C308.493 458.587 307.741 458.963 307.491 459.464C307.24 460.09 307.365 460.717 307.491 461.218C308.368 463.348 310.999 464.727 313.505 464.1C316.011 463.474 317.64 461.218 317.891 458.963C317.891 458.461 317.891 457.71 317.39 457.334C316.889 456.832 316.137 456.832 315.635 457.208C314.633 457.71 314.257 458.587 313.881 459.213C313.129 460.592 312.754 461.845 312.628 462.722C312.503 463.599 312.503 464.1 312.503 464.1C312.628 464.1 312.754 462.095 314.382 459.464C314.758 458.837 315.26 458.085 316.011 457.71C316.387 457.584 316.763 457.584 316.889 457.835C317.139 458.086 317.264 458.461 317.139 458.963C316.889 460.842 315.385 462.847 313.255 463.348C311.125 463.849 308.744 462.722 308.117 460.967C307.992 460.592 307.867 460.09 307.992 459.714C308.117 459.339 308.368 459.213 308.744 459.213C309.496 459.213 310.247 459.714 310.874 460.216C313.505 462.221 314.132 464.225 314.257 464.1Z" fill="#263238"/>
<path d="M363 431.771L361.872 459.588C361.872 459.588 389.69 469.988 390.065 475.126L336.185 475.001L336.06 431.646L363 431.771Z" fill="#EF37FF"/>
<g opacity="0.6">
<g opacity="0.6">
<path opacity="0.6" d="M345.208 457.207C344.206 457.458 343.454 458.711 343.704 459.713C343.955 460.716 345.083 461.468 346.211 461.217C347.213 460.966 348.215 459.588 347.839 458.586C347.464 457.583 346.085 456.706 345.083 457.333" fill="white"/>
</g>
</g>
<g opacity="0.6">
<path d="M336.185 475V470.739L388.061 472.494C388.061 472.494 390.441 473.496 390.191 475.25L336.185 475Z" fill="#93079F"/>
</g>
<path d="M362.75 459.338C362.75 459.589 361.371 459.714 360.118 460.591C358.74 461.343 358.114 462.596 357.863 462.471C357.612 462.471 357.988 460.842 359.617 459.839C361.246 458.712 362.875 459.088 362.75 459.338Z" fill="#263238"/>
<path d="M368.389 461.592C368.389 461.843 367.261 462.344 366.384 463.347C365.507 464.474 365.256 465.602 365.006 465.602C364.755 465.602 364.63 464.098 365.758 462.72C366.885 461.467 368.389 461.342 368.389 461.592Z" fill="#263238"/>
<path d="M371.647 468.359C371.396 468.359 371.02 467.106 371.772 465.602C372.398 464.098 373.651 463.597 373.777 463.848C373.902 464.098 373.15 464.85 372.524 465.978C372.023 467.231 371.897 468.359 371.647 468.359Z" fill="#263238"/>
<path d="M362.374 452.948C362.249 453.198 360.996 452.822 359.617 452.948C358.114 453.073 356.986 453.449 356.861 453.323C356.735 453.073 357.863 452.196 359.617 452.07C361.246 451.82 362.499 452.697 362.374 452.948Z" fill="#263238"/>
<g opacity="0.3">
<path opacity="0.3" d="M362.749 437.285L362.624 442.171L336.06 441.921V437.41L362.749 437.285Z" fill="black"/>
</g>
<path d="M362.499 447.308C362.499 447.433 361.497 447.559 359.743 447.308C358.865 447.183 357.988 446.932 356.861 446.431C356.359 446.18 355.858 445.93 355.357 445.554C355.106 445.428 354.856 445.178 354.605 444.927C354.354 444.677 354.104 443.925 354.48 443.549C354.73 443.173 355.232 442.922 355.608 442.922C355.983 442.922 356.359 443.048 356.61 443.048C357.236 443.173 357.738 443.424 358.239 443.674C359.241 444.175 360.118 444.802 360.745 445.303C361.998 446.431 362.374 447.433 362.374 447.559C362.249 447.684 361.622 446.807 360.369 445.804C359.743 445.303 358.865 444.802 357.988 444.426C357.487 444.175 356.986 444.05 356.485 443.925C355.858 443.799 355.482 443.799 355.232 444.05C355.232 444.175 355.232 444.175 355.232 444.301C355.357 444.426 355.608 444.551 355.858 444.802C356.359 445.053 356.861 445.428 357.236 445.679C358.114 446.18 359.116 446.431 359.868 446.681C361.371 447.057 362.499 447.183 362.499 447.308Z" fill="#263238"/>
<path d="M362.123 447.685C361.998 447.685 361.497 446.807 361.371 445.053C361.371 444.176 361.371 443.174 361.747 442.046C361.873 441.545 362.123 440.918 362.499 440.417C362.875 439.916 363.251 439.164 364.253 439.039C364.755 439.039 365.256 439.414 365.381 439.79C365.506 440.166 365.632 440.417 365.632 440.793C365.757 441.419 365.757 442.046 365.632 442.672C365.507 443.8 365.005 444.803 364.504 445.429C363.502 446.807 362.374 447.183 362.374 447.058C362.249 446.933 363.251 446.431 364.003 445.053C364.379 444.427 364.755 443.549 364.88 442.547C364.88 442.046 364.88 441.545 364.88 441.043C364.755 440.417 364.629 440.041 364.379 440.041C364.128 440.041 363.627 440.417 363.376 440.918C363.126 441.419 362.875 441.921 362.75 442.422C362.374 443.424 362.249 444.301 362.249 445.053C361.998 446.682 362.249 447.685 362.123 447.685Z" fill="#263238"/>
<path d="M336.06 298.574C304.233 301.832 262.006 306.217 262.006 306.217L267.77 358.093C267.77 358.093 329.795 341.678 329.419 343.056C328.918 344.435 332.301 453.449 332.301 453.449H369.641L370.393 330.025C370.519 311.355 354.605 296.694 336.06 298.574Z" fill="#030229"/>
<path d="M185.695 319.499V335.537C185.695 346.439 198.226 358.092 209.127 358.092H217.648C224.289 358.092 234.814 353.205 240.202 349.321L243.46 346.94L282.43 467.482C282.43 467.482 326.912 459.463 326.912 458.084C326.912 456.706 296.714 359.345 282.806 314.111C277.167 295.691 257.369 284.915 239.075 291.18C238.448 291.431 237.822 291.681 237.195 291.932C217.272 300.077 185.695 319.499 185.695 319.499Z" fill="#030229"/>
<path d="M326.787 458.209C326.787 458.209 326.662 458.084 326.536 457.833C326.411 457.458 326.286 457.082 326.035 456.58C325.659 455.453 325.033 453.824 324.281 451.568C322.777 447.183 320.772 440.917 318.266 433.023C313.254 417.36 306.613 395.558 299.345 371.499C295.712 359.47 292.329 347.942 289.196 337.542C287.692 332.279 286.189 327.393 284.81 322.756C284.058 320.376 283.432 318.245 282.805 315.99C282.179 313.86 281.552 311.73 280.801 309.85C279.297 306.091 276.916 303.209 274.535 300.953C272.155 298.698 269.899 297.069 267.894 295.816C266.015 294.563 264.511 293.561 263.383 292.934C262.882 292.683 262.506 292.433 262.256 292.182C262.005 292.057 261.88 291.932 261.88 291.932C261.88 291.932 262.005 291.932 262.256 292.182C262.632 292.308 263.007 292.558 263.509 292.809C264.636 293.435 266.14 294.312 268.02 295.565C270.024 296.818 272.28 298.447 274.786 300.578C277.167 302.833 279.673 305.715 281.302 309.599C282.179 311.479 282.805 313.609 283.432 315.739C284.058 317.869 284.81 320.125 285.437 322.38C286.815 327.017 288.319 332.029 289.948 337.166C293.08 347.566 296.589 359.094 300.223 371.123C307.49 395.182 314.006 416.859 318.768 432.773C321.148 440.542 323.153 446.932 324.531 451.443C325.158 453.573 325.785 455.327 326.16 456.455C326.286 456.956 326.411 457.458 326.536 457.833C326.787 457.959 326.787 458.209 326.787 458.209Z" fill="#455A64"/>
<path d="M336.185 327.519C336.435 327.645 334.305 330.903 332.551 335.163C330.797 339.423 330.045 343.182 329.669 343.182C329.418 343.182 329.794 339.298 331.674 334.787C333.553 330.276 336.059 327.269 336.185 327.519Z" fill="#455A64"/>
<path d="M343.327 332.532C343.452 332.783 340.194 334.161 336.937 336.793C333.553 339.424 331.423 342.181 331.173 342.055C330.922 341.93 332.802 338.797 336.31 336.041C339.819 333.284 343.327 332.282 343.327 332.532Z" fill="#455A64"/>
<path d="M282.68 467.606C282.429 467.732 271.904 435.403 259.248 395.557C246.467 355.71 236.443 323.257 236.693 323.257C236.944 323.131 247.469 355.46 260.125 395.306C272.781 435.153 282.93 467.481 282.68 467.606Z" fill="#455A64"/>
<path d="M234.94 279.528L362.374 280.781L386.056 213.618L293.457 214.245L271.905 274.641L234.94 275.142V279.528Z" fill="#26C0E2"/>
<path d="M332.3 252.964C335.137 252.964 337.437 250.664 337.437 247.827C337.437 244.99 335.137 242.689 332.3 242.689C329.463 242.689 327.163 244.99 327.163 247.827C327.163 250.664 329.463 252.964 332.3 252.964Z" fill="white"/>
<path d="M224.542 97.837C225.795 93.3261 229.052 91.1959 233.438 89.6923C237.824 88.1886 242.961 89.0657 246.595 91.8224C249.101 93.702 250.981 96.4586 253.863 97.4611C258.624 99.09 264.263 95.5815 268.899 97.7117C271.656 98.9647 273.159 102.348 272.533 105.23C271.781 108.112 268.899 110.367 265.892 110.242C269.024 111.37 270.027 115.881 268.147 118.637C266.268 121.394 262.508 122.522 259.251 121.895C255.993 121.269 253.111 119.264 250.605 117.008C248.099 114.753 245.843 112.247 243.212 110.242C240.58 108.237 237.322 106.734 233.939 106.859C229.428 107.109 225.544 110.493 223.539 114.502C221.534 118.512 221.033 123.148 220.782 127.659C220.532 132.17 220.407 136.806 219.153 141.067C219.028 141.568 218.778 142.194 218.276 142.32C217.525 142.57 216.898 141.819 216.522 141.067C212.387 133.423 209.756 125.028 208.879 116.382C208.377 111.37 208.503 106.608 211.259 102.473C214.141 98.2129 221.158 95.0803 224.542 97.837Z" fill="#030229"/>
<path d="M215.771 118.761L213.515 169.509C213.139 178.155 214.267 190.936 227.925 190.936C239.829 190.059 243.337 178.907 243.588 170.888C243.713 167.128 243.964 163.871 243.964 163.495C243.964 163.495 256.87 162.868 258.499 150.087C259.251 143.947 259.752 131.166 260.003 119.513C260.379 107.108 250.981 96.4573 238.701 95.2042L237.448 95.0789C224.041 94.4524 216.147 105.354 215.771 118.761Z" fill="#FFAA8C"/>
<path d="M244.089 163.249C244.089 163.249 235.944 162.999 227.925 156.733C227.925 156.733 230.932 166.382 243.713 166.507L244.089 163.249Z" fill="#EB996E"/>
<path d="M255.368 127.658C255.242 128.66 254.365 129.412 253.363 129.287C252.36 129.287 251.609 128.41 251.609 127.407C251.734 126.405 252.611 125.653 253.614 125.778C254.741 125.904 255.493 126.655 255.368 127.658Z" fill="#263238"/>
<path d="M256.621 125.527C256.37 125.778 255.117 124.525 253.112 124.399C251.108 124.149 249.604 125.026 249.479 124.775C249.353 124.65 249.604 124.274 250.356 123.898C250.982 123.522 252.11 123.146 253.363 123.272C254.616 123.397 255.619 124.023 256.12 124.525C256.621 124.901 256.746 125.402 256.621 125.527Z" fill="#263238"/>
<path d="M236.071 126.278C235.945 127.28 235.068 128.032 234.066 127.907C233.063 127.907 232.312 127.03 232.312 126.027C232.437 125.025 233.314 124.273 234.316 124.398C235.444 124.524 236.196 125.276 236.071 126.278Z" fill="#263238"/>
<path d="M237.322 123.77C237.071 124.02 235.818 122.767 233.813 122.642C231.809 122.391 230.305 123.269 230.18 123.018C230.054 122.893 230.305 122.517 231.057 122.141C231.683 121.765 232.811 121.389 234.064 121.514C235.317 121.64 236.319 122.266 236.821 122.767C237.322 123.269 237.447 123.644 237.322 123.77Z" fill="#263238"/>
<path d="M242.837 139.059C242.837 138.934 244.09 138.809 246.095 138.809C246.597 138.809 247.098 138.809 247.223 138.433C247.348 138.057 247.223 137.556 247.098 136.929C246.722 135.676 246.346 134.298 245.97 132.919C244.466 127.281 243.464 122.645 243.715 122.645C243.965 122.645 245.343 127.155 246.847 132.794C247.223 134.172 247.599 135.551 247.85 136.804C247.975 137.43 248.225 138.057 247.85 138.809C247.724 139.185 247.223 139.435 246.972 139.435C246.597 139.56 246.346 139.435 246.095 139.435C244.09 139.31 242.837 139.185 242.837 139.059Z" fill="#263238"/>
<path d="M236.947 139.811C237.323 139.811 237.073 141.941 238.701 143.695C240.33 145.449 242.711 145.449 242.586 145.7C242.586 145.825 242.085 146.076 241.082 145.95C240.08 145.825 238.827 145.449 237.824 144.447C236.822 143.444 236.446 142.066 236.446 141.189C236.571 140.312 236.822 139.811 236.947 139.811Z" fill="#263238"/>
<path d="M238.701 116.128C238.451 116.629 236.571 116.128 234.191 116.254C231.81 116.254 229.93 116.755 229.68 116.254C229.554 116.003 229.93 115.502 230.807 115.126C231.559 114.75 232.812 114.374 234.191 114.374C235.569 114.374 236.822 114.75 237.574 115.126C238.326 115.502 238.701 115.878 238.701 116.128Z" fill="#263238"/>
<path d="M256.494 119.765C256.118 120.141 254.74 119.514 253.236 119.389C251.607 119.138 250.229 119.389 249.978 118.888C249.853 118.637 250.104 118.261 250.73 117.885C251.357 117.509 252.359 117.259 253.487 117.384C254.615 117.509 255.492 118.011 255.993 118.512C256.494 119.013 256.62 119.514 256.494 119.765Z" fill="#263238"/>
<path d="M215.894 128.286C215.644 128.16 207.374 124.777 206.747 133.548C206.121 142.32 215.017 141.192 215.017 140.941C215.017 140.565 215.894 128.286 215.894 128.286Z" fill="#FFBE9D"/>
<path d="M212.637 137.304C212.637 137.304 212.512 137.43 212.262 137.555C212.011 137.68 211.51 137.68 211.134 137.555C210.257 137.179 209.505 135.675 209.63 134.046C209.63 133.295 209.881 132.543 210.257 131.916C210.633 131.29 211.008 130.914 211.51 130.789C212.011 130.663 212.262 131.039 212.387 131.29C212.512 131.54 212.387 131.666 212.512 131.791C212.512 131.791 212.763 131.666 212.637 131.29C212.637 131.164 212.512 130.914 212.387 130.663C212.136 130.538 211.886 130.413 211.51 130.413C210.883 130.413 210.131 131.039 209.755 131.666C209.38 132.292 209.129 133.169 209.004 134.046C208.878 135.801 209.755 137.555 210.883 137.931C211.51 138.181 212.011 137.931 212.262 137.806C212.512 137.555 212.637 137.43 212.637 137.304Z" fill="#EB996E"/>
<path d="M263.009 117.134C257.245 118.011 251.105 115.881 247.096 111.746C244.214 108.739 242.334 104.729 238.575 103.1C236.069 101.972 233.062 102.223 230.555 103.351C228.049 104.479 225.919 106.233 223.914 108.238C225.669 115.004 223.288 122.021 220.907 128.537C220.657 129.289 220.281 130.04 219.654 130.416C218.526 131.043 217.023 130.291 216.271 129.289C215.018 127.66 214.642 125.404 214.517 123.399C214.141 118.638 214.517 113.751 216.146 109.24C217.649 104.729 220.406 100.594 224.165 97.5869C228.927 93.9531 235.066 92.4494 241.081 93.2012C247.096 93.9531 252.609 96.7097 256.869 100.845C258.874 102.724 260.754 104.98 261.505 107.611" fill="#030229"/>
<path d="M89.4618 401.156C93.9727 398.9 99.2355 398.524 104.122 399.401C106.754 399.903 109.51 400.655 111.39 402.659C113.144 404.664 113.52 408.173 111.515 409.927C110.262 410.929 108.508 411.055 106.879 411.055C102.995 411.055 98.7343 410.303 95.6017 412.684C93.8474 414.062 92.5944 416.192 90.5896 416.944C88.4594 417.57 86.2039 416.317 85.0762 414.438C83.9485 412.558 83.9485 410.178 84.4497 408.173C84.3244 408.047 84.9509 403.411 89.4618 401.156Z" fill="#3A974C"/>
<path d="M79.1879 381.357C81.9446 385.241 87.2073 383.988 89.7134 381.608C92.2195 379.227 93.2219 375.718 94.2243 372.46C96.3545 364.942 98.6099 357.048 96.981 349.405C96.4798 347.149 95.6027 344.894 93.9737 343.139C92.3448 341.385 89.8387 340.383 87.5832 341.009C84.9519 341.761 83.1976 344.392 82.0699 346.773C78.5614 354.166 76.6818 362.186 76.6818 370.33C76.5565 374.215 77.0577 378.224 79.1879 381.357Z" fill="#3A974C"/>
<path d="M71.6698 386.996C74.6771 383.488 75.1783 378.35 73.9253 373.965C72.547 369.579 69.665 365.82 66.1565 362.687C62.1468 359.054 57.3852 356.297 52.2478 354.543C50.2429 353.791 48.1128 353.29 45.9826 353.54C43.8525 353.791 41.7223 354.793 40.7199 356.673C39.2162 359.43 40.7199 362.813 42.2235 365.569C44.8549 370.456 47.9875 375.092 51.3707 379.478C54.1273 382.987 57.2599 386.495 61.3949 387.999C65.53 389.628 69.9156 389.377 72.0457 386.495" fill="#3A974C"/>
<path d="M78.9373 440.251C78.9373 440.251 79.0626 439.624 79.1879 438.497C79.3132 437.244 79.4385 435.615 79.6891 433.61C79.9397 431.605 80.1903 429.099 80.8168 426.467C81.318 423.836 82.3205 420.954 83.4482 418.072C84.5759 415.19 86.0796 412.559 87.7085 410.554C89.3374 408.424 91.3423 406.92 93.0965 406.043C94.8508 405.166 96.4797 404.79 97.6075 404.665C98.7352 404.539 99.3617 404.414 99.3617 404.414C99.3617 404.414 98.7352 404.414 97.6075 404.414C96.4797 404.539 94.7255 404.79 92.8459 405.667C90.9664 406.544 88.8362 408.048 87.082 410.178C85.3277 412.308 83.8241 414.94 82.6964 417.947C81.5686 420.829 80.6915 423.711 80.1903 426.467C79.6891 429.099 79.4385 431.605 79.1879 433.61C79.0626 435.615 78.9373 437.369 78.9373 438.497C78.9373 439.624 78.9373 440.251 78.9373 440.251Z" fill="#263238"/>
<path d="M79.3132 436.491C79.3132 436.491 79.3132 436.24 79.3132 435.614C79.3132 434.987 79.3132 434.235 79.3132 433.233C79.3132 431.228 79.3132 428.221 79.4385 424.587C79.5638 417.32 80.1903 409.425 81.4433 398.399C82.5711 387.999 84.0747 375.844 85.7036 367.95C86.0796 366.196 86.4555 364.567 86.7061 363.188C87.082 361.81 87.3326 360.557 87.5832 359.555C87.8338 358.678 87.9591 357.926 88.0844 357.299C88.2097 356.798 88.2097 356.547 88.2097 356.547C88.2097 356.547 88.0844 356.798 87.9591 357.299C87.8338 357.926 87.5832 358.678 87.3326 359.555C87.082 360.557 86.7061 361.685 86.3302 363.188C85.9542 364.567 85.5783 366.196 85.2024 367.95C83.5735 375.092 81.9445 385.117 80.6915 396.143C79.4385 407.295 78.9373 417.32 78.9373 424.712C78.9373 428.346 78.9373 431.354 79.0626 433.358C79.0626 434.361 79.1879 435.113 79.1879 435.739C79.3132 436.24 79.3132 436.491 79.3132 436.491Z" fill="#263238"/>
<path d="M79.3134 416.943C79.3134 416.943 79.3134 416.066 79.3134 414.437C79.1881 412.808 79.0628 410.552 78.5615 407.796C78.0603 405.039 77.4338 401.656 76.4314 398.147C75.9302 396.518 74.9277 392.509 72.4217 386.619C69.0385 378.6 64.5276 372.084 60.5178 368.074C59.6407 366.947 58.513 366.195 57.7612 365.443C57.3853 365.067 57.0093 364.691 56.5081 364.441C56.1322 364.19 55.7563 363.939 55.3804 363.689C54.1274 362.812 53.3755 362.311 53.2502 362.311C53.1249 362.436 56.1322 364.315 60.0166 368.325C63.901 372.46 68.2867 378.851 71.6698 386.745C73.5494 391.005 74.8024 394.889 75.8049 398.147C76.8073 401.656 77.5591 405.039 78.0603 407.796C78.5615 410.552 78.8121 412.808 79.0628 414.437C79.1881 416.191 79.3134 416.943 79.3134 416.943Z" fill="#263238"/>
<path d="M60.517 451.403L62.5218 478.093H96.855L98.8598 451.403H60.517Z" fill="#FFD66B"/>
<path d="M102.996 440.877H57.2604V451.403H102.996V440.877Z" fill="#FFD66B"/>
<path d="M62.1593 483.128L60.146 478.116H98.9901L96.74 483.128H62.1593Z" fill="#FFD66B"/>
<path d="M98.1085 460.049C98.1085 460.049 98.1085 460.175 97.9832 460.3C97.8579 460.425 97.7326 460.676 97.482 460.927C96.9808 461.553 96.3543 462.43 95.4771 463.433L95.3518 463.558C94.0988 461.804 92.4698 459.548 90.465 456.792H90.7156C89.212 458.922 87.583 461.177 85.8288 463.683L85.7035 463.934L85.5782 463.683C83.8239 461.553 81.8191 459.298 79.8142 456.792H80.1901C80.0648 456.917 79.9395 457.042 79.8142 457.167C78.0599 459.423 76.3057 461.553 74.6768 463.558L74.5515 463.809L74.4261 463.558C72.6719 461.052 71.043 458.796 69.5393 456.666H69.7899C67.4092 459.423 65.4043 461.678 63.7754 463.433L63.6501 463.558L63.5247 463.433C62.7729 462.054 62.1464 461.052 61.6452 460.3C61.3946 459.924 61.2693 459.674 61.144 459.423C61.0187 459.172 61.0187 459.172 61.0187 459.172C61.0187 459.172 61.144 459.298 61.2693 459.423C61.3946 459.674 61.6452 459.924 61.7705 460.175C62.2717 460.927 62.8982 461.929 63.7754 463.307H63.6501C65.1537 461.553 67.1585 459.172 69.5393 456.416L69.6646 456.29L69.7899 456.416C71.2936 458.546 72.9225 460.801 74.6768 463.182H74.3008C75.9298 461.177 77.684 458.922 79.4383 456.792C79.5636 456.666 79.6889 456.541 79.8142 456.416L79.9395 456.165L80.0648 456.416C82.0697 458.796 83.9492 461.177 85.8288 463.307H85.4529C87.2071 460.801 88.836 458.546 90.3397 456.541L90.465 456.29L90.5903 456.541C92.4698 459.298 94.2241 461.678 95.3518 463.433H95.2265C96.1036 462.43 96.8555 461.553 97.3567 460.927C97.6073 460.676 97.7326 460.425 97.8579 460.3C98.1085 460.175 98.1085 460.049 98.1085 460.049Z" fill="#030229"/>
<path d="M80.0645 451.403C90.6526 451.403 99.2359 451.29 99.2359 451.152C99.2359 451.014 90.6526 450.901 80.0645 450.901C69.4764 450.901 60.8931 451.014 60.8931 451.152C60.8931 451.29 69.4764 451.403 80.0645 451.403Z" fill="#455A64"/>
<path d="M435.675 157.983L411.868 257.724H418.509L442.066 157.983H435.675Z" fill="#B6BDC0"/>
<path d="M426.527 223.642C426.151 225.522 437.429 279.903 437.429 279.903H432.041L423.52 236.799L426.527 223.642Z" fill="#B6BDC0"/>
<path d="M505.972 351.827H394.201V470.364H505.972V351.827Z" fill="#26C0E2"/>
<path d="M511.61 369.119H506.096V374.632H511.61V369.119Z" fill="#263238"/>
<path d="M511.61 386.536H506.096V392.049H511.61V386.536Z" fill="#263238"/>
<path d="M511.61 404.079H506.096V409.592H511.61V404.079Z" fill="#263238"/>
<path d="M511.61 421.495H506.097V427.008H511.61V421.495Z" fill="#263238"/>
<path d="M511.736 405.581C511.736 405.581 512.362 405.456 513.364 405.205C514.492 405.08 515.996 404.704 518.126 404.704C520.131 404.704 522.637 405.08 524.892 406.458C526.02 407.21 527.148 408.213 527.774 409.591C528.526 410.969 528.777 412.473 528.651 414.102C528.526 415.606 528.025 417.109 527.273 418.362C526.521 419.615 525.519 420.618 524.391 421.369C522.261 422.998 519.88 423.625 517.875 424.001C515.871 424.251 514.242 424.251 513.114 424.126C511.986 424.001 511.36 423.876 511.36 423.876C511.36 423.876 511.986 423.876 513.114 423.876C514.242 423.876 515.871 423.876 517.75 423.5C519.63 423.124 521.885 422.372 524.015 420.868C526.02 419.365 527.9 416.859 528.025 413.977C528.15 412.473 527.9 411.095 527.273 409.842C526.647 408.589 525.644 407.711 524.642 406.96C522.512 405.581 520.131 405.205 518.126 405.08C516.121 405.08 514.618 405.205 513.49 405.331C512.362 405.581 511.736 405.707 511.736 405.581Z" fill="#263238"/>
<path d="M510.357 388.29C510.357 388.29 510.482 388.165 510.858 387.914C511.234 387.789 511.735 387.538 512.487 387.287C513.991 386.786 516.246 386.41 518.878 386.911C519.504 387.037 520.256 387.287 520.882 387.663C521.509 388.039 522.135 388.791 522.386 389.668C522.887 391.297 522.261 393.177 521.133 394.68C520.506 395.432 519.755 396.059 518.878 396.435C518 396.81 516.747 396.81 515.87 396.309C514.993 395.808 514.116 394.806 514.116 393.678C514.116 392.55 514.868 391.422 515.87 390.921C516.873 390.42 518 390.42 519.128 390.545C520.131 390.796 521.133 391.297 521.885 391.924C523.514 393.177 524.516 395.056 524.642 396.936C524.892 398.815 524.14 400.57 523.263 401.948C522.261 403.326 521.008 404.203 519.88 404.83C517.374 406.083 515.118 406.334 513.615 406.459C512.863 406.459 512.236 406.584 511.861 406.584C511.485 406.584 511.234 406.584 511.234 406.584C511.234 406.584 512.111 406.459 513.615 406.334C515.118 406.083 517.249 405.832 519.629 404.579C520.757 403.953 522.01 403.076 522.887 401.823C523.764 400.57 524.391 398.941 524.14 397.186C523.89 395.432 523.013 393.803 521.509 392.675C520.757 392.049 519.88 391.673 519.003 391.422C518.126 391.172 517.123 391.297 516.246 391.673C515.369 392.049 514.868 392.926 514.868 393.803C514.868 394.68 515.494 395.432 516.246 395.933C516.998 396.435 518 396.435 518.752 396.059C519.629 395.808 520.256 395.182 520.757 394.555C521.885 393.302 522.386 391.548 522.01 390.044C521.634 388.54 520.256 387.789 518.878 387.538C516.246 386.911 514.116 387.287 512.612 387.663C511.109 387.914 510.357 388.415 510.357 388.29Z" fill="#263238"/>
<path d="M510.482 371.249C510.482 371.249 510.858 371.124 511.735 370.999C512.487 370.999 513.74 370.999 515.118 371.5C516.496 372.001 518 372.878 519.253 374.256C520.506 375.76 521.383 377.765 521.383 380.02C521.509 382.276 520.757 384.406 519.629 385.91C518.501 387.413 516.998 388.416 515.619 388.917C514.241 389.418 513.113 389.543 512.361 389.543C511.61 389.543 511.108 389.418 511.108 389.418C511.108 389.293 512.988 389.669 515.494 388.416C516.747 387.789 518.125 386.912 519.128 385.408C520.256 383.905 520.882 382.025 520.757 379.895C520.631 377.765 519.88 375.885 518.752 374.507C517.624 373.129 516.12 372.252 514.867 371.75C512.236 370.999 510.482 371.374 510.482 371.249Z" fill="#263238"/>
<path d="M427.407 288.925C427.407 288.925 427.908 289.677 428.409 291.18C428.91 292.684 429.411 294.939 429.913 297.947C430.414 300.954 430.79 304.588 431.166 308.723C431.542 312.983 431.918 317.745 432.544 323.133C432.669 324.511 432.92 325.764 433.171 327.142C433.421 328.521 433.797 329.899 434.424 331.152C435.05 332.405 436.053 333.533 437.18 334.535C438.308 335.538 439.436 336.54 440.814 337.292C443.445 338.921 446.578 340.049 449.836 340.424C453.094 340.8 456.602 340.299 459.735 338.67C462.867 337.167 465.374 334.159 466.125 330.651C466.501 328.897 466.376 327.017 465.749 325.263C465.123 323.509 463.87 322.13 462.241 321.128C460.737 320.125 458.858 319.499 456.978 319.374C455.099 319.248 453.094 319.749 451.59 321.002C450.838 321.629 450.212 322.256 449.836 323.133C449.46 324.01 449.335 324.887 449.46 325.889C449.836 327.769 451.214 329.398 452.969 330.275C454.723 331.277 456.728 331.653 458.732 331.904C460.737 332.154 462.742 332.28 464.622 332.28C468.631 332.405 472.516 332.029 476.275 331.653C483.918 330.776 491.311 329.523 498.328 329.523C505.345 329.398 512.237 330.4 518.001 333.282C520.883 334.661 523.389 336.54 525.269 338.796C527.273 341.051 528.527 343.682 529.028 346.314C530.155 351.702 528.902 356.714 526.898 360.473C524.767 364.232 521.885 366.738 519.505 368.367C516.999 369.996 514.868 370.999 513.365 371.5C511.861 372.001 511.109 372.252 511.109 372.252C511.109 372.252 511.36 372.126 511.736 372.001C512.112 371.876 512.738 371.625 513.365 371.374C514.868 370.748 516.999 369.871 519.379 368.117C521.76 366.362 524.642 363.856 526.647 360.222C528.652 356.589 529.78 351.577 528.652 346.439C528.025 343.933 526.898 341.302 524.893 339.171C523.013 337.041 520.507 335.162 517.75 333.909C512.112 331.152 505.345 330.15 498.328 330.275C491.311 330.4 483.918 331.653 476.275 332.405C472.391 332.781 468.506 333.157 464.496 333.032C462.492 333.032 460.487 332.906 458.482 332.656C456.477 332.405 454.347 332.029 452.593 331.027C450.713 330.024 449.209 328.27 448.834 326.14C448.583 325.137 448.834 324.01 449.209 323.007C449.711 322.005 450.337 321.253 451.214 320.627C452.843 319.374 454.973 318.872 456.978 318.872C458.983 318.998 460.988 319.624 462.617 320.752C464.246 321.88 465.624 323.383 466.376 325.263C467.128 327.142 467.128 329.147 466.752 330.901C465.875 334.661 463.243 337.668 459.986 339.297C456.728 340.926 453.094 341.427 449.836 341.051C446.453 340.675 443.32 339.547 440.563 337.918C439.185 337.041 437.932 336.164 436.93 335.036C435.802 333.909 434.8 332.906 434.048 331.528C433.421 330.15 433.045 328.771 432.795 327.393C432.544 326.015 432.293 324.636 432.168 323.383C431.542 318.121 431.166 313.234 430.79 308.973C430.414 304.713 430.038 301.079 429.662 298.197C429.286 295.19 428.785 292.935 428.284 291.431C428.033 290.679 427.908 290.053 427.657 289.802C427.532 289.05 427.407 288.925 427.407 288.925Z" fill="#263238"/>
<path d="M499.705 465.352C499.705 465.352 499.705 465.226 499.705 464.85C499.705 464.474 499.705 463.973 499.705 463.347C499.705 461.968 499.705 460.089 499.705 457.457C499.705 452.32 499.705 444.802 499.58 435.279C499.58 416.233 499.455 389.042 499.455 356.463L499.705 356.713C470.134 356.713 435.55 356.713 398.586 356.713L398.961 356.338C398.961 396.435 398.961 433.775 398.961 465.226L398.711 464.976C429.034 464.976 454.22 465.101 471.888 465.101C480.785 465.101 487.676 465.101 492.438 465.226C494.819 465.226 496.573 465.226 497.826 465.226C499.079 465.352 499.705 465.352 499.705 465.352C499.705 465.352 499.079 465.352 497.826 465.352C496.573 465.352 494.819 465.352 492.438 465.352C487.676 465.352 480.785 465.352 472.013 465.477C454.346 465.477 429.034 465.602 398.586 465.602H398.335V465.352C398.335 433.9 398.335 396.435 398.335 356.463V356.087H398.711C435.55 356.087 470.134 356.087 499.831 356.087H500.081V356.338C500.081 388.916 499.956 416.233 499.956 435.279C499.956 444.802 499.956 452.32 499.831 457.457C499.831 459.964 499.831 461.968 499.831 463.221C499.831 463.848 499.831 464.349 499.831 464.725C499.705 465.226 499.705 465.352 499.705 465.352Z" fill="#263238"/>
<path d="M470.761 370.373C471.038 370.373 471.262 370.148 471.262 369.871C471.262 369.595 471.038 369.37 470.761 369.37C470.484 369.37 470.26 369.595 470.26 369.871C470.26 370.148 470.484 370.373 470.761 370.373Z" fill="#263238"/>
<path d="M473.517 370.373C473.794 370.373 474.018 370.148 474.018 369.871C474.018 369.595 473.794 369.37 473.517 369.37C473.24 369.37 473.016 369.595 473.016 369.871C473.016 370.148 473.24 370.373 473.517 370.373Z" fill="#263238"/>
<path d="M476.4 370.373C476.677 370.373 476.901 370.148 476.901 369.871C476.901 369.595 476.677 369.37 476.4 369.37C476.123 369.37 475.899 369.595 475.899 369.871C475.899 370.148 476.123 370.373 476.4 370.373Z" fill="#263238"/>
<path d="M479.361 370.449C479.637 370.449 479.862 370.224 479.862 369.947C479.862 369.671 479.637 369.446 479.361 369.446C479.084 369.446 478.859 369.671 478.859 369.947C478.859 370.224 479.084 370.449 479.361 370.449Z" fill="#263238"/>
<path d="M482.242 370.449C482.519 370.449 482.743 370.224 482.743 369.947C482.743 369.671 482.519 369.446 482.242 369.446C481.965 369.446 481.741 369.671 481.741 369.947C481.741 370.224 481.965 370.449 482.242 370.449Z" fill="#263238"/>
<path d="M485.045 370.373C485.322 370.373 485.547 370.148 485.547 369.871C485.547 369.595 485.322 369.37 485.045 369.37C484.769 369.37 484.544 369.595 484.544 369.871C484.544 370.148 484.769 370.373 485.045 370.373Z" fill="#263238"/>
<path d="M487.801 370.373C488.078 370.373 488.302 370.148 488.302 369.871C488.302 369.595 488.078 369.37 487.801 369.37C487.524 369.37 487.3 369.595 487.3 369.871C487.3 370.148 487.524 370.373 487.801 370.373Z" fill="#263238"/>
<path d="M486.548 372.377C486.825 372.377 487.049 372.153 487.049 371.876C487.049 371.599 486.825 371.375 486.548 371.375C486.271 371.375 486.047 371.599 486.047 371.876C486.047 372.153 486.271 372.377 486.548 372.377Z" fill="#263238"/>
<path d="M483.746 372.454C484.023 372.454 484.247 372.229 484.247 371.952C484.247 371.676 484.023 371.451 483.746 371.451C483.469 371.451 483.245 371.676 483.245 371.952C483.245 372.229 483.469 372.454 483.746 372.454Z" fill="#263238"/>
<path d="M480.739 372.454C481.016 372.454 481.241 372.229 481.241 371.952C481.241 371.676 481.016 371.451 480.739 371.451C480.463 371.451 480.238 371.676 480.238 371.952C480.238 372.229 480.463 372.454 480.739 372.454Z" fill="#263238"/>
<path d="M477.857 372.454C478.134 372.454 478.358 372.229 478.358 371.952C478.358 371.676 478.134 371.451 477.857 371.451C477.58 371.451 477.356 371.676 477.356 371.952C477.356 372.229 477.58 372.454 477.857 372.454Z" fill="#263238"/>
<path d="M474.895 372.377C475.172 372.377 475.396 372.153 475.396 371.876C475.396 371.599 475.172 371.375 474.895 371.375C474.618 371.375 474.394 371.599 474.394 371.876C474.394 372.153 474.618 372.377 474.895 372.377Z" fill="#263238"/>
<path d="M471.889 372.377C472.165 372.377 472.39 372.153 472.39 371.876C472.39 371.599 472.165 371.375 471.889 371.375C471.612 371.375 471.387 371.599 471.387 371.876C471.387 372.153 471.612 372.377 471.889 372.377Z" fill="#263238"/>
<path d="M470.761 374.507C471.038 374.507 471.262 374.283 471.262 374.006C471.262 373.729 471.038 373.505 470.761 373.505C470.484 373.505 470.26 373.729 470.26 374.006C470.26 374.283 470.484 374.507 470.761 374.507Z" fill="#263238"/>
<path d="M473.517 374.507C473.794 374.507 474.018 374.283 474.018 374.006C474.018 373.729 473.794 373.505 473.517 373.505C473.24 373.505 473.016 373.729 473.016 374.006C473.016 374.283 473.24 374.507 473.517 374.507Z" fill="#263238"/>
<path d="M476.4 374.507C476.677 374.507 476.901 374.283 476.901 374.006C476.901 373.729 476.677 373.505 476.4 373.505C476.123 373.505 475.899 373.729 475.899 374.006C475.899 374.283 476.123 374.507 476.4 374.507Z" fill="#263238"/>
<path d="M479.36 374.583C479.637 374.583 479.862 374.359 479.862 374.082C479.862 373.805 479.637 373.581 479.36 373.581C479.084 373.581 478.859 373.805 478.859 374.082C478.859 374.359 479.084 374.583 479.36 374.583Z" fill="#263238"/>
<path d="M482.242 374.583C482.519 374.583 482.743 374.359 482.743 374.082C482.743 373.805 482.519 373.581 482.242 373.581C481.965 373.581 481.741 373.805 481.741 374.082C481.741 374.359 481.965 374.583 482.242 374.583Z" fill="#263238"/>
<path d="M485.045 374.507C485.322 374.507 485.547 374.283 485.547 374.006C485.547 373.729 485.322 373.505 485.045 373.505C484.769 373.505 484.544 373.729 484.544 374.006C484.544 374.283 484.769 374.507 485.045 374.507Z" fill="#263238"/>
<path d="M487.801 374.507C488.078 374.507 488.302 374.283 488.302 374.006C488.302 373.729 488.078 373.505 487.801 373.505C487.524 373.505 487.3 373.729 487.3 374.006C487.3 374.283 487.524 374.507 487.801 374.507Z" fill="#263238"/>
<path d="M486.548 376.386C486.825 376.386 487.049 376.162 487.049 375.885C487.049 375.608 486.825 375.384 486.548 375.384C486.271 375.384 486.047 375.608 486.047 375.885C486.047 376.162 486.271 376.386 486.548 376.386Z" fill="#263238"/>
<path d="M483.746 376.462C484.023 376.462 484.247 376.238 484.247 375.961C484.247 375.684 484.023 375.46 483.746 375.46C483.469 375.46 483.245 375.684 483.245 375.961C483.245 376.238 483.469 376.462 483.746 376.462Z" fill="#263238"/>
<path d="M480.739 376.462C481.016 376.462 481.24 376.238 481.24 375.961C481.24 375.684 481.016 375.46 480.739 375.46C480.462 375.46 480.238 375.684 480.238 375.961C480.238 376.238 480.462 376.462 480.739 376.462Z" fill="#263238"/>
<path d="M477.857 376.462C478.134 376.462 478.358 376.238 478.358 375.961C478.358 375.684 478.134 375.46 477.857 375.46C477.58 375.46 477.356 375.684 477.356 375.961C477.356 376.238 477.58 376.462 477.857 376.462Z" fill="#263238"/>
<path d="M474.895 376.386C475.172 376.386 475.396 376.162 475.396 375.885C475.396 375.608 475.172 375.384 474.895 375.384C474.618 375.384 474.394 375.608 474.394 375.885C474.394 376.162 474.618 376.386 474.895 376.386Z" fill="#263238"/>
<path d="M471.889 376.386C472.165 376.386 472.39 376.162 472.39 375.885C472.39 375.608 472.165 375.384 471.889 375.384C471.612 375.384 471.387 375.608 471.387 375.885C471.387 376.162 471.612 376.386 471.889 376.386Z" fill="#263238"/>
<path d="M470.761 378.642C471.038 378.642 471.262 378.418 471.262 378.141C471.262 377.864 471.038 377.64 470.761 377.64C470.484 377.64 470.26 377.864 470.26 378.141C470.26 378.418 470.484 378.642 470.761 378.642Z" fill="#263238"/>
<path d="M473.517 378.642C473.794 378.642 474.018 378.418 474.018 378.141C474.018 377.864 473.794 377.64 473.517 377.64C473.24 377.64 473.016 377.864 473.016 378.141C473.016 378.418 473.24 378.642 473.517 378.642Z" fill="#263238"/>
<path d="M476.4 378.642C476.677 378.642 476.901 378.418 476.901 378.141C476.901 377.864 476.677 377.64 476.4 377.64C476.123 377.64 475.899 377.864 475.899 378.141C475.899 378.418 476.123 378.642 476.4 378.642Z" fill="#263238"/>
<path d="M479.36 378.719C479.637 378.719 479.862 378.495 479.862 378.218C479.862 377.941 479.637 377.717 479.36 377.717C479.084 377.717 478.859 377.941 478.859 378.218C478.859 378.495 479.084 378.719 479.36 378.719Z" fill="#263238"/>
<path d="M482.242 378.719C482.519 378.719 482.743 378.495 482.743 378.218C482.743 377.941 482.519 377.717 482.242 377.717C481.965 377.717 481.741 377.941 481.741 378.218C481.741 378.495 481.965 378.719 482.242 378.719Z" fill="#263238"/>
<path d="M485.045 378.642C485.322 378.642 485.547 378.418 485.547 378.141C485.547 377.864 485.322 377.64 485.045 377.64C484.769 377.64 484.544 377.864 484.544 378.141C484.544 378.418 484.769 378.642 485.045 378.642Z" fill="#263238"/>
<path d="M487.801 378.642C488.078 378.642 488.302 378.418 488.302 378.141C488.302 377.864 488.078 377.64 487.801 377.64C487.524 377.64 487.3 377.864 487.3 378.141C487.3 378.418 487.524 378.642 487.801 378.642Z" fill="#263238"/>
<path d="M486.548 380.522C486.825 380.522 487.049 380.298 487.049 380.021C487.049 379.744 486.825 379.52 486.548 379.52C486.271 379.52 486.047 379.744 486.047 380.021C486.047 380.298 486.271 380.522 486.548 380.522Z" fill="#263238"/>
<path d="M483.746 380.598C484.023 380.598 484.247 380.374 484.247 380.097C484.247 379.82 484.023 379.596 483.746 379.596C483.469 379.596 483.245 379.82 483.245 380.097C483.245 380.374 483.469 380.598 483.746 380.598Z" fill="#263238"/>
<path d="M480.739 380.598C481.016 380.598 481.241 380.374 481.241 380.097C481.241 379.82 481.016 379.596 480.739 379.596C480.463 379.596 480.238 379.82 480.238 380.097C480.238 380.374 480.463 380.598 480.739 380.598Z" fill="#263238"/>
<path d="M477.857 380.598C478.134 380.598 478.358 380.374 478.358 380.097C478.358 379.82 478.134 379.596 477.857 379.596C477.58 379.596 477.356 379.82 477.356 380.097C477.356 380.374 477.58 380.598 477.857 380.598Z" fill="#263238"/>
<path d="M474.895 380.522C475.172 380.522 475.396 380.298 475.396 380.021C475.396 379.744 475.172 379.52 474.895 379.52C474.618 379.52 474.394 379.744 474.394 380.021C474.394 380.298 474.618 380.522 474.895 380.522Z" fill="#263238"/>
<path d="M471.889 380.522C472.165 380.522 472.39 380.298 472.39 380.021C472.39 379.744 472.165 379.52 471.889 379.52C471.612 379.52 471.387 379.744 471.387 380.021C471.387 380.298 471.612 380.522 471.889 380.522Z" fill="#263238"/>
<path d="M63.2747 279.904V291.933H129.56V470.365H135.7V291.933L412.746 293.311V470.365H418.761V292.935L461.489 293.311V278.901L63.2747 279.904Z" fill="#FF8F6B"/>
<path d="M105.753 289.553L131.941 308.348L129.56 310.604L103.247 290.68L105.753 289.553Z" fill="#FF8F6B"/>
<path d="M443.445 291.307L412.996 312.984L415.251 315.114L445.825 292.434L443.445 291.307Z" fill="#FF8F6B"/>
<path d="M228.3 275.518H159.759V280.53H228.3V275.518Z" fill="#263238"/>
</svg>
