<svg width="32" height="32" viewBox="0 0 32 32" fill="none" xmlns="http://www.w3.org/2000/svg">
<path d="M16.0003 2.66669C8.64833 2.66669 2.66699 8.64802 2.66699 16C2.66699 23.352 8.64833 29.3334 16.0003 29.3334C23.3523 29.3334 29.3337 23.352 29.3337 16C29.3337 8.64802 23.3523 2.66669 16.0003 2.66669ZM17.3337 24H14.667V21.3334H17.3337V24ZM18.635 17.4867C18.3737 17.6974 18.1217 17.8987 17.9217 18.0987C17.3777 18.6414 17.335 19.1347 17.3337 19.156V19.3334H14.667V19.1107C14.667 18.9534 14.7057 17.5414 16.035 16.212C16.295 15.952 16.6177 15.688 16.9563 15.4134C17.935 14.62 18.5777 14.0414 18.5777 13.244C18.5622 12.5704 18.2837 11.9297 17.8017 11.4588C17.3198 10.988 16.6728 10.7245 15.999 10.7246C15.3253 10.7248 14.6783 10.9887 14.1967 11.4598C13.715 11.9309 13.4368 12.5718 13.4217 13.2454H10.755C10.755 10.3534 13.1083 8.00002 16.0003 8.00002C18.8923 8.00002 21.2457 10.3534 21.2457 13.2454C21.2457 15.3747 19.6737 16.6454 18.635 17.4867Z" fill="#017EFA"/>
</svg>
