<svg width="22" height="22" viewBox="0 0 22 22" fill="none" xmlns="http://www.w3.org/2000/svg">
<path d="M0 19.1633C0 20.7301 1.27007 22 2.83671 22H19.1632C20.7301 22 22 20.7299 22 19.1633V2.8368C22 1.2699 20.7299 0 19.1633 0H2.8368C1.2699 0 0 1.27007 0 2.83671V19.1632V19.1633Z" fill="#563D7C"/>
<path d="M9.12286 9.73139V6.6159H11.8652C12.1265 6.6159 12.3783 6.63764 12.6208 6.68121C12.8633 6.7247 13.0779 6.80238 13.2644 6.91436C13.4509 7.02634 13.6002 7.1818 13.7122 7.38074C13.8241 7.57977 13.8801 7.83475 13.8801 8.14559C13.8801 8.7053 13.7122 9.10955 13.3763 9.35825C13.0406 9.60704 12.6115 9.73139 12.0891 9.73139H9.12286ZM6.19385 4.33984V17.6602H12.6488C13.2458 17.6602 13.8272 17.5856 14.3931 17.4363C14.959 17.287 15.4627 17.057 15.9043 16.746C16.3457 16.4351 16.6971 16.034 16.9583 15.5427C17.2195 15.0514 17.3501 14.47 17.3501 13.7984C17.3501 12.965 17.148 12.2531 16.7438 11.6623C16.3395 11.0715 15.727 10.658 14.9061 10.4216C15.5031 10.1356 15.954 9.76869 16.2588 9.32095C16.5634 8.87322 16.7158 8.31359 16.7158 7.64191C16.7158 7.02006 16.6132 6.49773 16.408 6.07484C16.2027 5.65202 15.9136 5.31309 15.5404 5.05811C15.1674 4.80313 14.7196 4.61966 14.1972 4.50777C13.6749 4.39579 13.0965 4.33984 12.4622 4.33984H6.19385ZM9.12286 15.3841V11.7275H12.3129C12.9472 11.7275 13.4572 11.8736 13.8428 12.166C14.2283 12.4583 14.4212 12.9464 14.4212 13.6305C14.4212 13.9788 14.362 14.2648 14.2439 14.4886C14.1257 14.7125 13.9672 14.8898 13.7681 15.0203C13.5692 15.151 13.339 15.2442 13.0779 15.3002C12.8166 15.3561 12.5431 15.3841 12.257 15.3841H9.12286Z" fill="white"/>
</svg>
