<svg width="24" height="24" viewBox="0 0 24 24" fill="none" xmlns="http://www.w3.org/2000/svg">
<path d="M7.37547 16.781L8.62547 15.219L4.60147 12L8.62547 8.78098L7.37547 7.21898L2.37547 11.219C2.25831 11.3127 2.16374 11.4315 2.09874 11.5667C2.03375 11.7019 2 11.85 2 12C2 12.15 2.03375 12.2981 2.09874 12.4333C2.16374 12.5685 2.25831 12.6873 2.37547 12.781L7.37547 16.781ZM16.6255 7.21898L15.3755 8.78098L19.3995 12L15.3755 15.219L16.6255 16.781L21.6255 12.781C21.7426 12.6873 21.8372 12.5685 21.9022 12.4333C21.9672 12.2981 22.0009 12.15 22.0009 12C22.0009 11.85 21.9672 11.7019 21.9022 11.5667C21.8372 11.4315 21.7426 11.3127 21.6255 11.219L16.6255 7.21898ZM14.9765 3.21598L10.9765 21.216L9.02347 20.782L13.0235 2.78198L14.9765 3.21598Z" fill="#699BF7"/>
</svg>
