<svg width="60" height="60" viewBox="0 0 60 60" fill="none" xmlns="http://www.w3.org/2000/svg">
<circle opacity="0.2" cx="30" cy="30" r="30" fill="#4A3AFF"/>
<path d="M38.3333 15H45C45.442 15 45.8659 15.1756 46.1785 15.4881C46.4911 15.8007 46.6667 16.2246 46.6667 16.6666V43.3333C46.6667 43.7753 46.4911 44.1993 46.1785 44.5118C45.8659 44.8244 45.442 45 45 45H38.3333V15ZM14.765 14.795L35.715 11.8033C35.8332 11.7863 35.9537 11.795 36.0683 11.8287C36.1829 11.8624 36.2889 11.9203 36.3792 11.9985C36.4694 12.0768 36.5418 12.1735 36.5914 12.2822C36.641 12.3908 36.6667 12.5089 36.6667 12.6283V47.3716C36.6666 47.4909 36.641 47.6088 36.5915 47.7173C36.542 47.8259 36.4698 47.9225 36.3797 48.0007C36.2897 48.0789 36.1839 48.1369 36.0695 48.1707C35.9551 48.2045 35.8348 48.2133 35.7167 48.1966L14.7633 45.205C14.366 45.1484 14.0025 44.9504 13.7395 44.6472C13.4765 44.3441 13.3317 43.9563 13.3317 43.555V16.445C13.3317 16.0437 13.4765 15.6558 13.7395 15.3527C14.0025 15.0496 14.366 14.8516 14.7633 14.795H14.765ZM28.3333 23.3333V31.6483L25 28.3333L21.6833 31.6666L21.6667 23.3333H18.3333V36.6666H21.6667L25 33.3333L28.3333 36.6666H31.6667V23.3333H28.3333Z" fill="#4A3AFF"/>
</svg>
