<svg width="60" height="60" viewBox="0 0 60 60" fill="none" xmlns="http://www.w3.org/2000/svg">
<circle opacity="0.2" cx="30" cy="30" r="30" fill="#4A3AFF"/>
<path d="M45.4727 23.793L35.5547 22.3516L31.1211 13.3633C31 13.1172 30.8008 12.918 30.5547 12.7969C29.9375 12.4922 29.1875 12.7461 28.8789 13.3633L24.4453 22.3516L14.5274 23.793C14.2539 23.832 14.0039 23.961 13.8125 24.1563C13.5811 24.3941 13.4536 24.7141 13.458 25.0459C13.4624 25.3777 13.5983 25.6942 13.8359 25.9258L21.0117 32.9219L19.3164 42.8008C19.2767 43.0306 19.3021 43.267 19.3898 43.483C19.4776 43.6991 19.6241 43.8863 19.8128 44.0234C20.0015 44.1604 20.2248 44.2418 20.4574 44.2584C20.6901 44.275 20.9227 44.2261 21.1289 44.1172L30 39.4531L38.8711 44.1172C39.1133 44.2461 39.3945 44.2891 39.6641 44.2422C40.3438 44.125 40.8008 43.4805 40.6836 42.8008L38.9883 32.9219L46.1641 25.9258C46.3594 25.7344 46.4883 25.4844 46.5274 25.211C46.6328 24.5274 46.1563 23.8945 45.4727 23.793Z" fill="#4A3AFF"/>
</svg>
