<svg width="24" height="24" viewBox="0 0 24 24" fill="none" xmlns="http://www.w3.org/2000/svg">
<path d="M12.744 12C13.3407 12 13.913 12.2371 14.335 12.659C14.7569 13.081 14.994 13.6533 14.994 14.25L14.9925 15.3727C15.147 18.1275 13.0253 19.5015 9.09 19.5015C5.16825 19.5015 3 18.1455 3 15.4117V14.25C3 13.6533 3.23705 13.081 3.65901 12.659C4.08097 12.2371 4.65326 12 5.25 12H12.744ZM18.744 12C19.3407 12 19.913 12.2371 20.335 12.659C20.7569 13.081 20.994 13.6533 20.994 14.25V15.0397C21.129 17.511 19.254 18.75 15.8273 18.75C15.3623 18.75 14.925 18.7275 14.5162 18.6825C15.3217 17.9385 15.7522 16.9297 15.7507 15.6547L15.741 15.3307L15.744 14.25C15.7444 13.8243 15.654 13.4033 15.4787 13.0153C15.3035 12.6273 15.0474 12.2812 14.7277 12H18.7448H18.744ZM9 3C9.99476 3 10.9488 3.39517 11.6522 4.09857C12.3556 4.80197 12.7507 5.75599 12.7507 6.75075C12.7507 7.74551 12.3556 8.69953 11.6522 9.40293C10.9488 10.1063 9.99476 10.5015 9 10.5015C8.00524 10.5015 7.05122 10.1063 6.34782 9.40293C5.64442 8.69953 5.24925 7.74551 5.24925 6.75075C5.24925 5.75599 5.64442 4.80197 6.34782 4.09857C7.05122 3.39517 8.00524 3 9 3ZM16.5 4.5C17.2956 4.5 18.0587 4.81607 18.6213 5.37868C19.1839 5.94129 19.5 6.70435 19.5 7.5C19.5 8.29565 19.1839 9.05871 18.6213 9.62132C18.0587 10.1839 17.2956 10.5 16.5 10.5C15.7044 10.5 14.9413 10.1839 14.3787 9.62132C13.8161 9.05871 13.5 8.29565 13.5 7.5C13.5 6.70435 13.8161 5.94129 14.3787 5.37868C14.9413 4.81607 15.7044 4.5 16.5 4.5Z" fill="#25273F" fill-opacity="0.3"/>
</svg>
