<svg width="22" height="20" viewBox="0 0 22 20" fill="none" xmlns="http://www.w3.org/2000/svg">
<g clip-path="url(#clip0_292_753)">
<path d="M18.0876 6.54772C17.8535 6.4674 17.6174 6.39299 17.3795 6.32456C17.4195 6.16129 17.4563 6.00001 17.4889 5.84155C18.025 3.23953 17.6745 1.14329 16.4776 0.453109C15.33 -0.208545 13.4533 0.48138 11.5578 2.13096C11.371 2.29383 11.1884 2.46138 11.01 2.63347C10.8907 2.51904 10.7692 2.40683 10.6456 2.29689C8.65911 0.533109 6.66796 -0.210264 5.47234 0.481895C4.32579 1.14561 3.98628 3.11622 4.46886 5.58222C4.51687 5.82645 4.57108 6.06942 4.63144 6.3109C4.34959 6.39098 4.07763 6.47622 3.81735 6.56697C1.48832 7.379 0.000976562 8.65152 0.000976562 9.97148C0.000976562 11.3347 1.59771 12.7021 4.02349 13.5313C4.22015 13.5982 4.41845 13.6602 4.61821 13.7173C4.55333 13.9774 4.49574 14.2392 4.44549 14.5025C3.98542 16.9257 4.34469 18.8498 5.48815 19.5093C6.66916 20.1903 8.65137 19.4904 10.5814 17.8031C10.7379 17.666 10.891 17.5249 11.0405 17.3801C11.2336 17.5665 11.4319 17.7474 11.6351 17.9227C13.5047 19.5314 15.3512 20.1811 16.4935 19.5197C17.6734 18.8367 18.0569 16.7698 17.559 14.255C17.5198 14.058 17.4758 13.862 17.4271 13.6671C17.5663 13.6259 17.703 13.5834 17.8362 13.5393C20.358 12.7038 21.9988 11.353 21.9988 9.97148C21.9988 8.64671 20.4634 7.36559 18.0876 6.54772ZM17.5407 12.6473C17.4204 12.6871 17.297 12.7255 17.1712 12.7629C16.8927 11.8815 16.5171 10.9444 16.0573 9.97603C16.496 9.03081 16.8573 8.10561 17.1279 7.22999C17.3529 7.29513 17.5712 7.36379 17.7818 7.43622C19.8174 8.13706 21.0591 9.17311 21.0591 9.97148C21.0591 10.8218 19.7181 11.9258 17.5407 12.6473ZM16.6372 14.4376C16.8573 15.5495 16.8887 16.5549 16.7429 17.3408C16.6119 18.0471 16.3485 18.5179 16.0226 18.7065C15.3294 19.1078 13.8469 18.5862 12.248 17.2103C12.059 17.0473 11.8746 16.8791 11.6949 16.7059C12.3148 16.028 12.9343 15.24 13.5388 14.3647C14.6023 14.2703 15.607 14.116 16.5181 13.9054C16.562 14.0818 16.6017 14.2593 16.6372 14.4376ZM7.50053 18.6372C6.82323 18.8763 6.28377 18.8832 5.95767 18.6952C5.26379 18.295 4.97533 16.7501 5.3688 14.6778C5.41557 14.4329 5.46912 14.1894 5.5294 13.9475C6.43045 14.1469 7.42783 14.2902 8.49378 14.3766C9.1025 15.2331 9.73984 16.0203 10.3822 16.7096C10.2457 16.8417 10.1059 16.9704 9.96308 17.0956C9.10955 17.8416 8.2543 18.371 7.50053 18.6372ZM4.32751 12.6421C3.25485 12.2754 2.36901 11.7989 1.76184 11.279C1.21619 10.8118 0.940783 10.3478 0.940783 9.97148C0.940783 9.17045 2.13494 8.14875 4.12669 7.45436C4.36841 7.37015 4.62139 7.29066 4.8839 7.21607C5.15921 8.11146 5.52029 9.04765 5.95604 9.99433C5.51462 10.955 5.14839 11.9062 4.87041 12.8121C4.68808 12.7599 4.50705 12.7032 4.32751 12.6421ZM5.39114 5.40168C4.97773 3.28894 5.25228 1.69521 5.94323 1.29521C6.67913 0.869178 8.30645 1.47661 10.0217 2.99962C10.1335 3.09916 10.2436 3.20071 10.3517 3.30424C9.7126 3.99055 9.08111 4.77191 8.4778 5.62329C7.44321 5.71919 6.45288 5.87317 5.54237 6.07949C5.48628 5.85489 5.43585 5.62891 5.39114 5.40177V5.40168ZM14.88 7.7448C14.665 7.37332 14.4419 7.00652 14.2111 6.64465C14.9129 6.73341 15.5854 6.85122 16.2169 6.99524C16.0274 7.60293 15.7911 8.2382 15.5129 8.88954C15.3096 8.50379 15.0986 8.12213 14.88 7.7448ZM11.0105 3.97586C11.4439 4.44546 11.878 4.96972 12.305 5.53857C11.4388 5.49766 10.5712 5.49749 9.70504 5.53805C10.1324 4.97444 10.5703 4.45088 11.0105 3.97586ZM7.11608 7.75124C6.90025 8.12554 6.69319 8.50482 6.49507 8.88877C6.22147 8.23975 5.98731 7.60155 5.79612 6.98527C6.42375 6.84486 7.09305 6.73006 7.79045 6.64293C7.55702 7.00701 7.33216 7.37652 7.11608 7.75116V7.75124ZM7.81047 13.3669C7.08996 13.2865 6.4106 13.1776 5.78315 13.041C5.97735 12.4137 6.21666 11.7619 6.49619 11.099C6.6951 11.4832 6.90302 11.8627 7.11977 12.2372C7.34267 12.6221 7.57348 12.9992 7.81047 13.3669ZM11.0364 16.0333C10.591 15.5527 10.1467 15.0211 9.71286 14.4493C10.1341 14.4658 10.5635 14.4742 10.9999 14.4742C11.4483 14.4742 11.8915 14.4642 12.3278 14.4448C11.8994 15.0269 11.4669 15.5593 11.0364 16.0333ZM15.5218 11.0651C15.8158 11.7353 16.0636 12.3837 16.2604 13.0002C15.6226 13.1458 14.934 13.263 14.2084 13.35C14.4409 12.9814 14.6661 12.6083 14.8837 12.2307C15.105 11.847 15.3178 11.4583 15.5218 11.0651ZM14.0697 11.7612C13.7365 12.3401 13.3846 12.9079 13.0144 13.4639C12.344 13.5114 11.672 13.535 10.9999 13.5346C10.3153 13.5346 9.64944 13.5133 9.00824 13.4717C8.62845 12.917 8.26978 12.3482 7.93301 11.7664H7.93309C7.5979 11.1876 7.28481 10.5964 6.99449 9.99391C7.28407 9.39127 7.59621 8.79975 7.93026 8.22059L7.93017 8.22067C8.26409 7.64136 8.61989 7.07493 8.99681 6.52263C9.65099 6.47313 10.3218 6.44735 10.9998 6.44735H10.9999C11.681 6.44735 12.3527 6.47339 13.0067 6.52323C13.3798 7.07471 13.7333 7.63918 14.0666 8.2156C14.4018 8.79349 14.7181 9.38213 15.0149 9.98059C14.7211 10.5852 14.4058 11.1791 14.0697 11.7612ZM16.0083 1.2672C16.7449 1.69204 17.0314 3.4052 16.5685 5.65182C16.539 5.79515 16.5058 5.94114 16.4697 6.0892C15.557 5.8785 14.566 5.72185 13.5284 5.6245C12.9239 4.76374 12.2976 3.98119 11.6689 3.30372C11.8336 3.14488 12.0023 2.99016 12.1748 2.8397C13.7989 1.42643 15.3167 0.868405 16.0083 1.2672ZM10.9999 8.00714C12.0848 8.00714 12.9642 8.88662 12.9642 9.97148C12.9642 11.0563 12.0848 11.9358 10.9999 11.9358C9.91505 11.9358 9.03556 11.0563 9.03556 9.97148C9.03556 8.88662 9.91505 8.00714 10.9999 8.00714Z" fill="#00D8FF"/>
</g>
<defs>
<clipPath id="clip0_292_753">
<rect width="22" height="19.5918" fill="white" transform="translate(0 0.204102)"/>
</clipPath>
</defs>
</svg>
