<svg width="34" height="34" viewBox="0 0 34 34" fill="none" xmlns="http://www.w3.org/2000/svg">
<circle cx="17" cy="17" r="17" fill="#017EFA"/>
<path fill-rule="evenodd" clip-rule="evenodd" d="M11.3068 22.3821C11.6451 22.899 12.0439 23.3775 12.4968 23.8067C13.619 24.8703 15.0254 25.586 16.5458 25.8671C18.0662 26.1482 19.6354 25.9826 21.0637 25.3905C22.492 24.7984 23.7181 23.8051 24.5937 22.5308C25.4693 21.2564 25.9569 19.7557 25.9974 18.21C26.0379 16.6644 25.6296 15.1401 24.822 13.8217C24.0144 12.5032 22.842 11.447 21.4467 10.7809C20.5024 10.3301 19.4834 10.071 18.4481 10.0129L19.0032 12.0848C19.5483 12.1773 20.0809 12.3451 20.585 12.5858C21.6315 13.0854 22.5108 13.8775 23.1165 14.8663C23.7223 15.8552 24.0284 16.9984 23.9981 18.1576C23.9677 19.3168 23.602 20.4424 22.9453 21.3982C22.2886 22.3539 21.369 23.0989 20.2978 23.543C19.2266 23.9871 18.0496 24.1112 16.9093 23.9004C15.769 23.6896 14.7143 23.1529 13.8726 22.3551C13.6969 22.1886 13.532 22.0121 13.3787 21.8269L11.3068 22.3821Z" fill="white"/>
<path d="M11.9124 10.0665C12.6892 9.47037 13.548 8.99272 14.4604 8.64739C14.8798 8.48868 15.0895 8.40932 15.2869 8.51053C15.4844 8.61174 15.5465 8.84338 15.6706 9.30667L17.7412 17.0341C17.8632 17.4894 17.9242 17.7171 17.8206 17.8964C17.7171 18.0758 17.4894 18.1368 17.0341 18.2588L9.30667 20.3294C8.84338 20.4535 8.61174 20.5156 8.42535 20.3952C8.23896 20.2747 8.20284 20.0535 8.13061 19.6109C7.97344 18.6481 7.95774 17.6656 8.08555 16.6947C8.25696 15.3928 8.68314 14.1373 9.33975 13C9.99636 11.8627 10.8705 10.8659 11.9124 10.0665Z" stroke="white" stroke-width="2"/>
</svg>
