<svg width="24" height="16" viewBox="0 0 24 16" fill="none" xmlns="http://www.w3.org/2000/svg">
<g clip-path="url(#clip0_292_767)">
<path d="M11.9998 0.781982C8.80015 0.781982 6.80028 2.38186 6.00039 5.58151C7.20027 3.98164 8.60011 3.3817 10.2 3.78169C11.1127 4.00985 11.7652 4.67213 12.4874 5.40509C13.6638 6.59926 15.0253 7.98128 17.9992 7.98128C21.1989 7.98128 23.1987 6.3814 23.9986 3.18175C22.7987 4.78162 21.3989 5.38156 19.799 4.98157C18.8863 4.75341 18.2339 4.09113 17.5117 3.35817C16.3352 2.164 14.9737 0.781982 11.9998 0.781982ZM6.00039 7.98128C2.80073 7.98128 0.800867 9.58115 0.000976562 12.7808C1.20086 11.1809 2.60069 10.581 4.20057 10.981C5.11332 11.2092 5.76576 11.8714 6.48794 12.6044C7.66438 13.7986 9.02588 15.1806 11.9998 15.1806C15.1995 15.1806 17.1993 13.5807 17.9992 10.381C16.7993 11.9809 15.3995 12.5809 13.7996 12.1809C12.8869 11.9527 12.2344 11.2904 11.5123 10.5575C10.3358 9.3633 8.97432 7.98128 6.00039 7.98128Z" fill="url(#paint0_linear_292_767)"/>
</g>
<defs>
<linearGradient id="paint0_linear_292_767" x1="-0.665678" y1="5.38953" x2="20.0602" y2="17.3397" gradientUnits="userSpaceOnUse">
<stop stop-color="#2298BD"/>
<stop offset="1" stop-color="#0ED7B5"/>
</linearGradient>
<clipPath id="clip0_292_767">
<rect width="24" height="14.4361" fill="white" transform="translate(0 0.781982)"/>
</clipPath>
</defs>
</svg>
